<svg width="144" height="18" viewBox="0 0 144 18" fill="none" xmlns="http://www.w3.org/2000/svg">
<g clip-path="url(#clip0_663_860)">
<path d="M58.9707 0.784622C59.1665 0.749101 59.3446 0.749137 59.5049 0.784622C59.5583 0.784622 59.6392 0.819934 59.7461 0.891068C59.7283 0.962201 59.7102 1.0338 59.6924 1.10493C59.6924 1.17611 59.6838 1.24763 59.666 1.3188C59.6838 1.40757 59.701 1.5053 59.7188 1.61177C59.7544 1.70072 59.7725 1.79899 59.7725 1.90572C59.7903 1.99468 59.8169 2.0929 59.8525 2.19966C59.9059 2.28851 59.9507 2.38604 59.9863 2.49263C59.9329 2.59939 59.8796 2.72431 59.8262 2.86665C59.7727 2.99121 59.7195 3.11612 59.666 3.24068C59.7015 3.31164 59.7283 3.3826 59.7461 3.45357C59.7639 3.50695 59.782 3.56989 59.7998 3.64107C59.7285 3.96127 59.6572 4.28181 59.5859 4.60201C59.5325 4.92218 59.4963 5.25136 59.4785 5.58931C59.4607 5.67811 59.434 5.77576 59.3984 5.88228C59.3806 5.97114 59.3539 6.07822 59.3184 6.20259C59.354 6.27365 59.3892 6.35403 59.4248 6.44283C59.4604 6.51389 59.4871 6.59426 59.5049 6.68306L59.3984 7.21724V7.45747C59.3984 7.52858 59.3803 7.59065 59.3447 7.644C59.2913 7.76855 59.2561 7.89346 59.2383 8.01802C59.2383 8.14256 59.2202 8.27608 59.1846 8.41841C59.1846 8.6497 59.175 8.89003 59.1572 9.13911C59.1394 9.37038 59.1394 9.61077 59.1572 9.85982C59.1572 10.0198 59.1305 10.1707 59.0771 10.3129C59.0415 10.4375 59.0063 10.5891 58.9707 10.767C59.0063 10.8382 59.033 10.9097 59.0508 10.9809C59.0686 11.052 59.0867 11.1323 59.1045 11.2211C59.0867 11.3099 59.06 11.4076 59.0244 11.5141C59.0066 11.6031 58.979 11.7013 58.9434 11.8081C58.9968 11.9326 59.051 12.0575 59.1045 12.1821C59.1579 12.3065 59.2112 12.4403 59.2646 12.5825C59.3002 12.6535 59.3269 12.7244 59.3447 12.7954C59.3626 12.8487 59.3806 12.9117 59.3984 12.9829C59.4518 13.1249 59.5052 13.2139 59.5586 13.2495C59.6298 13.285 59.7279 13.2936 59.8525 13.2758C60.102 13.2047 60.3607 13.1513 60.6279 13.1157C60.8953 13.0801 61.1633 13.0362 61.4307 12.9829C61.4841 12.9651 61.5729 12.9555 61.6973 12.9555C61.8576 12.9555 62.0184 12.9383 62.1787 12.9028C62.357 12.8672 62.5176 12.8043 62.6602 12.7153C62.981 12.5196 63.3108 12.449 63.6494 12.5024C63.7385 12.5202 63.8279 12.5202 63.917 12.5024C64.0061 12.4846 64.0955 12.4932 64.1846 12.5288C64.2023 12.5466 64.2196 12.5822 64.2373 12.6352C64.2551 12.6708 64.2646 12.707 64.2646 12.7426C64.318 12.9026 64.3447 13.0631 64.3447 13.2231C64.3625 13.3653 64.3711 13.5163 64.3711 13.6762C64.3889 13.8007 64.3803 13.943 64.3447 14.103C64.3269 14.2453 64.3184 14.3884 64.3184 14.5307C64.3184 14.6552 64.3088 14.7888 64.291 14.9311C64.2732 15.0734 64.2466 15.2156 64.2109 15.3579C64.1575 15.4824 64.1394 15.6159 64.1572 15.7583C64.175 15.8828 64.175 16.0163 64.1572 16.1586C64.1216 16.2298 64.0769 16.31 64.0234 16.3989C63.9879 16.4877 63.944 16.5767 63.8906 16.6655C63.8728 16.7366 63.8452 16.8168 63.8096 16.9057C63.774 16.9768 63.7387 17.0571 63.7031 17.146C63.5785 17.1993 63.4537 17.2528 63.3291 17.3061C63.2222 17.3773 63.1147 17.4307 63.0078 17.4663C62.7761 17.5196 62.5262 17.5292 62.2588 17.4936C62.0094 17.4581 61.7601 17.4753 61.5107 17.5463C61.4751 17.5641 61.4304 17.5823 61.377 17.6001C61.3413 17.6178 61.288 17.6446 61.2168 17.6801C61.1455 17.6979 61.0561 17.7161 60.9492 17.7338C60.8601 17.7516 60.7708 17.7688 60.6816 17.7866H60.4678C60.4143 17.7866 60.3696 17.778 60.334 17.7602C60.2272 17.7069 60.1205 17.6802 60.0137 17.6801C59.9245 17.6801 59.8352 17.6983 59.7461 17.7338C59.6748 17.7338 59.6035 17.7243 59.5322 17.7065C59.4609 17.6887 59.3801 17.6716 59.291 17.6538C59.2019 17.7425 59.0857 17.8134 58.9434 17.8667C58.8009 17.9199 58.6495 17.9295 58.4893 17.894C58.3288 17.8762 58.1863 17.9115 58.0615 18.0004C57.9546 17.9471 57.8567 17.9022 57.7676 17.8667C57.6963 17.8311 57.6155 17.8044 57.5264 17.7866C57.4017 17.7689 57.277 17.7784 57.1523 17.8139C57.0455 17.8494 56.9207 17.858 56.7783 17.8403C56.6358 17.8047 56.4931 17.8048 56.3506 17.8403C56.2258 17.8759 56.0918 17.894 55.9492 17.894C55.8066 17.8762 55.6726 17.8667 55.5479 17.8667C55.4232 17.8844 55.3071 17.9112 55.2002 17.9467C55.1824 17.8935 55.1557 17.8494 55.1201 17.8139C55.0846 17.7962 55.0675 17.7779 55.0674 17.7602C54.9426 17.2087 54.8799 16.6126 54.8799 15.9721C54.9155 15.7942 54.9241 15.6245 54.9062 15.4643C54.8885 15.2865 54.8799 15.0994 54.8799 14.9038C54.7552 14.548 54.6743 14.1922 54.6387 13.8364C54.6209 13.4807 54.6209 13.1161 54.6387 12.7426C54.6565 12.3868 54.6746 12.0216 54.6924 11.6479C54.7102 11.2743 54.7283 10.8918 54.7461 10.5004C54.7461 10.3581 54.7546 10.2065 54.7725 10.0463C54.7903 9.88622 54.8169 9.73457 54.8525 9.59224C54.9238 9.41444 54.9685 9.23684 54.9863 9.05904C55.0041 8.86344 55.0137 8.66772 55.0137 8.47212V7.99165C55.0137 7.81372 55.0042 7.63541 54.9863 7.45747V7.21724C54.9863 7.12837 54.9777 7.03951 54.96 6.95064C54.9243 6.80829 54.8977 6.66525 54.8799 6.5229C54.8621 6.38069 54.8525 6.24696 54.8525 6.12251C54.8703 6.03365 54.8703 5.94478 54.8525 5.85591C54.8525 5.76704 54.844 5.67819 54.8262 5.58931C54.8173 5.55383 54.8125 5.51593 54.8125 5.47603L54.8398 5.22212C54.8398 5.18213 54.8351 5.14439 54.8262 5.10884C54.8084 4.98446 54.7998 4.8688 54.7998 4.76216C54.7998 4.65558 54.817 4.54843 54.8525 4.44185C54.8704 4.33509 54.8618 4.21875 54.8262 4.09419C54.8084 3.95193 54.7903 3.8097 54.7725 3.66743C54.7725 3.50744 54.7906 3.36515 54.8262 3.24068C54.8796 3.02724 54.9158 2.81349 54.9336 2.60005C54.9514 2.36873 54.9685 2.16373 54.9863 1.98579C55.022 1.84344 55.0762 1.73666 55.1475 1.66548C55.2364 1.57657 55.2717 1.47821 55.2539 1.37154C55.2363 1.26507 55.281 1.19419 55.3877 1.15865C55.4946 1.10526 55.5032 1.01562 55.4141 0.891068C55.5385 0.891068 55.6099 0.900718 55.6279 0.918411C55.9666 1.06076 56.2612 1.07791 56.5107 0.971146C56.6177 0.988939 56.7251 1.00706 56.832 1.02486C56.9388 1.0426 57.037 1.05122 57.126 1.05122C57.215 1.06898 57.3131 1.069 57.4199 1.05122C57.5268 1.03345 57.6248 1.01627 57.7139 0.998489C57.9278 0.945109 58.133 0.900288 58.3291 0.8647C58.5429 0.811368 58.7569 0.784622 58.9707 0.784622ZM141.887 14.3432C142.19 14.5033 142.448 14.6731 142.662 14.851C142.894 15.0289 143.063 15.2694 143.17 15.5717C143.152 15.6962 143.134 15.8299 143.116 15.9721C143.098 16.0965 143.072 16.2208 143.036 16.3452C143.018 16.5409 142.974 16.7373 142.902 16.9331C142.849 17.1109 142.751 17.2713 142.608 17.4135C142.573 17.4668 142.537 17.5108 142.501 17.5463C142.465 17.5997 142.43 17.6446 142.395 17.6801C142.323 17.7513 142.242 17.8047 142.153 17.8403C142.064 17.8936 141.948 17.9376 141.806 17.9731H141.405C141.263 17.9909 141.102 18.0004 140.924 18.0004C140.621 18.0004 140.371 17.885 140.175 17.6538C140.104 17.5648 140.024 17.4665 139.935 17.3598C139.863 17.2531 139.782 17.1463 139.693 17.0395C139.684 16.9861 139.674 16.9327 139.66 16.8793L139.566 16.559C139.553 16.5057 139.542 16.4522 139.533 16.3989C139.498 16.1854 139.489 15.9804 139.507 15.7846C139.525 15.589 139.596 15.4019 139.721 15.2241C139.738 15.2064 139.757 15.189 139.774 15.1713C139.792 15.1536 139.809 15.1354 139.827 15.1176C139.97 14.9753 140.122 14.8504 140.282 14.7436C140.46 14.6192 140.656 14.5304 140.87 14.477C140.924 14.4592 140.995 14.4506 141.084 14.4506C141.173 14.4328 141.254 14.4147 141.325 14.3969H141.592C141.681 14.3791 141.78 14.361 141.887 14.3432ZM68.0166 7.93794C68.1056 7.95572 68.177 7.9911 68.2305 8.04439C68.3018 8.07998 68.373 8.11622 68.4443 8.15181C68.5689 8.15181 68.6937 8.12498 68.8184 8.07173C68.9431 8.05394 69.0505 8.06251 69.1396 8.0981C69.2465 8.13367 69.3264 8.22257 69.3799 8.3647C69.3977 8.38249 69.4072 8.40062 69.4072 8.41841C69.425 8.43615 69.4432 8.45438 69.4609 8.47212L69.6475 8.57857C69.7722 8.59636 69.8796 8.57824 69.9688 8.52486C70.0576 8.45396 70.1465 8.40989 70.2354 8.39204C70.3422 8.39204 70.405 8.43605 70.4229 8.52486C70.4763 8.64939 70.5124 8.83637 70.5303 9.0854C70.4946 9.19217 70.4766 9.31708 70.4766 9.45943V9.85982C70.4944 9.98431 70.4944 10.1179 70.4766 10.2602C70.4588 10.3846 70.4502 10.5089 70.4502 10.6333L70.2627 10.9008C70.3516 10.9896 70.405 11.0873 70.4229 11.1938C70.4407 11.3006 70.4502 11.4169 70.4502 11.5415V11.9418C70.4502 12.0663 70.4407 12.2 70.4229 12.3422C70.405 12.4667 70.3698 12.6004 70.3164 12.7426C70.263 12.8848 70.2182 13.0358 70.1826 13.1958C70.1826 13.3737 70.1731 13.5873 70.1553 13.8364C70.1553 14.0677 70.1648 14.2994 70.1826 14.5307C70.2004 14.8687 70.1824 15.2159 70.1289 15.5717C70.0754 15.9097 69.968 16.2303 69.8076 16.5327C69.8076 16.6749 69.8257 16.8172 69.8613 16.9594C69.897 17.084 69.9331 17.2175 69.9688 17.3598C69.9687 17.3776 69.9592 17.3958 69.9414 17.4135C69.9237 17.449 69.915 17.4845 69.915 17.52C69.8259 17.6445 69.7185 17.7513 69.5938 17.8403C69.5761 17.8404 69.5586 17.8492 69.541 17.8667H69.4336C69.2376 17.8667 69.0322 17.8762 68.8184 17.894C68.6224 17.9295 68.3997 17.92 68.1504 17.8667C68.0792 17.8311 67.9991 17.7871 67.9102 17.7338C67.8389 17.6805 67.7581 17.6356 67.6689 17.6001C67.5977 17.6 67.5083 17.5915 67.4014 17.5737C67.3125 17.5737 67.2236 17.5641 67.1348 17.5463C66.9922 17.3862 66.8487 17.2174 66.7061 17.0395C66.6527 17.004 66.5906 16.9772 66.5195 16.9594C66.4483 16.9416 66.3769 16.9149 66.3057 16.8793C66.181 16.7904 66.1363 16.6481 66.1719 16.4526C66.2075 16.2569 66.2522 16.0871 66.3057 15.9448C66.359 15.7136 66.3496 15.4912 66.2783 15.2778L66.1719 14.9038C66.1719 14.7616 66.1633 14.6278 66.1455 14.5034C66.1277 14.379 66.1277 14.2547 66.1455 14.1303C66.1633 13.9526 66.1633 13.7835 66.1455 13.6235V13.1157C66.1633 12.8666 66.1719 12.6262 66.1719 12.395V11.6743C66.1719 11.5855 66.1804 11.5319 66.1982 11.5141C66.2873 11.3718 66.332 11.2382 66.332 11.1137V10.687C66.3142 10.5447 66.3142 10.4024 66.332 10.2602C66.3677 10.1001 66.3677 9.95703 66.332 9.83247V9.37935C66.332 9.21923 66.3416 9.059 66.3594 8.89888C66.3772 8.81005 66.3857 8.7211 66.3857 8.63228C66.4036 8.52552 66.395 8.40918 66.3594 8.28462C66.5195 8.21358 66.6529 8.16002 66.7598 8.12447C66.8845 8.0889 67.0005 8.07175 67.1074 8.07173H67.3213C67.4104 8.07173 67.4912 8.06218 67.5625 8.04439C67.7405 8.00883 67.8919 7.9735 68.0166 7.93794ZM34.9746 3.21333C35.1706 3.23112 35.3579 3.25784 35.5361 3.29341C35.732 3.32897 35.9281 3.33849 36.124 3.32076C36.1775 3.37414 36.2317 3.42753 36.2852 3.48091C36.3563 3.51647 36.4278 3.56043 36.499 3.61372C36.5881 3.57819 36.6776 3.55142 36.7666 3.53365C36.8555 3.49815 36.9357 3.47133 37.0068 3.45357C37.1138 3.52474 37.2297 3.59626 37.3545 3.66743C37.4436 3.6852 37.5149 3.66709 37.5684 3.61372C37.6396 3.56043 37.711 3.53365 37.7822 3.53365C37.9425 3.55143 38.0671 3.63173 38.1562 3.77388C38.2631 3.89835 38.3792 4.00526 38.5039 4.09419C38.6109 4.16537 38.7087 4.25501 38.7979 4.36177C38.9048 4.4685 39.0122 4.56579 39.1191 4.65474C39.1547 4.70801 39.19 4.76162 39.2256 4.8149C39.2612 4.86827 39.2888 4.92168 39.3066 4.97505C39.3957 5.04617 39.4756 5.1092 39.5469 5.16255C39.618 5.19812 39.681 5.25069 39.7344 5.32173C39.8233 5.39277 39.912 5.4463 40.001 5.48189C40.1079 5.51748 40.1887 5.58042 40.2422 5.66939C40.2778 5.75816 40.3131 5.85588 40.3486 5.96236C40.3843 6.05126 40.4471 6.13146 40.5361 6.20259C40.5896 6.38041 40.6429 6.56755 40.6963 6.76314C40.7497 6.94096 40.7592 7.12809 40.7236 7.32368C40.7236 7.41256 40.7141 7.4928 40.6963 7.56392C40.7319 7.65288 40.7585 7.75111 40.7764 7.85786C40.7942 7.96463 40.8218 8.06284 40.8574 8.15181V8.28462C40.8574 8.338 40.8479 8.40095 40.8301 8.47212C40.8301 8.52532 40.8396 8.56944 40.8574 8.60493C40.893 8.71149 40.9369 8.79179 40.9902 8.84517C40.9902 8.95187 40.9464 9.05019 40.8574 9.13911C40.8218 9.15689 40.777 9.17505 40.7236 9.19283C40.6702 9.21062 40.6255 9.23732 40.5898 9.2729C40.376 9.39744 40.3494 9.55672 40.5098 9.7524C40.5276 9.77019 40.5542 9.80644 40.5898 9.85982C40.643 9.89527 40.6784 9.93955 40.6963 9.99263C40.7141 10.0637 40.7236 10.1441 40.7236 10.2329C40.7236 10.3039 40.7322 10.3843 40.75 10.4731C40.6787 10.8111 40.5447 11.1316 40.3486 11.434C40.4021 11.6831 40.4829 11.9235 40.5898 12.1547C40.7146 12.386 40.8211 12.6264 40.9102 12.8754C40.9991 12.9287 41.0706 12.9823 41.124 13.0356C41.1775 13.089 41.2402 13.1338 41.3115 13.1694C41.3293 13.2225 41.3378 13.258 41.3379 13.2758C41.3557 13.2936 41.3652 13.3204 41.3652 13.3559C41.3652 13.5338 41.3823 13.7122 41.418 13.8901C41.4714 14.068 41.5342 14.2368 41.6055 14.3969C41.6768 14.5571 41.748 14.7087 41.8193 14.851C41.8906 14.9933 41.98 15.1355 42.0869 15.2778C42.176 15.349 42.2473 15.4472 42.3008 15.5717C42.3542 15.6962 42.3989 15.8031 42.4346 15.892C42.4879 16.0165 42.5061 16.1321 42.4883 16.2387C42.4705 16.3455 42.4343 16.4523 42.3809 16.559C42.363 16.5768 42.3277 16.6037 42.2744 16.6391C42.221 16.6569 42.1763 16.6837 42.1406 16.7192C42.0693 16.737 42.0066 16.7456 41.9531 16.7456C41.8997 16.7456 41.8369 16.7637 41.7656 16.7993C41.4986 16.8527 41.3387 16.995 41.2852 17.226C41.2673 17.2616 41.2312 17.3064 41.1777 17.3598C41.053 17.3776 40.9636 17.3957 40.9102 17.4135C40.8566 17.4492 40.7498 17.5113 40.5898 17.6001C40.4651 17.6001 40.3396 17.6182 40.2148 17.6538C40.0904 17.6894 39.9749 17.7602 39.8682 17.8667H39.7871C39.7693 17.8844 39.7426 17.894 39.707 17.894C39.6359 17.9293 39.5557 17.9112 39.4668 17.8403C39.3777 17.7869 39.333 17.7154 39.333 17.6264V17.4663C39.2617 17.4307 39.1724 17.4307 39.0654 17.4663C38.9763 17.5018 38.905 17.4665 38.8516 17.3598V16.9594C38.7982 16.9239 38.7448 16.8971 38.6914 16.8793C38.6558 16.8438 38.6111 16.8171 38.5576 16.7993C38.4863 16.6569 38.4065 16.5053 38.3174 16.3452C38.2283 16.1851 38.1389 16.0429 38.0498 15.9184C37.9785 15.865 37.9158 15.8469 37.8623 15.8647C37.8089 15.8825 37.7642 15.9092 37.7285 15.9448C37.6929 15.9804 37.6663 16.0252 37.6484 16.0786C37.6306 16.1141 37.6039 16.1495 37.5684 16.185C37.5505 16.2028 37.5349 16.2233 37.5215 16.2456L37.4551 16.392C37.4417 16.4144 37.4261 16.4347 37.4082 16.4526C37.1766 16.5593 36.9445 16.6566 36.7129 16.7456C36.4812 16.8167 36.2578 16.8797 36.0439 16.9331C35.9193 17.0219 35.7946 17.1022 35.6699 17.1733C35.5452 17.2444 35.4291 17.3151 35.3223 17.3862C35.2155 17.404 35.1087 17.4308 35.002 17.4663C34.895 17.5019 34.7962 17.5285 34.707 17.5463C34.6002 17.4931 34.4935 17.4758 34.3867 17.4936C34.2976 17.5292 34.1816 17.5645 34.0391 17.6001C33.8787 17.5645 33.7094 17.5196 33.5312 17.4663C33.3531 17.4307 33.1657 17.3954 32.9697 17.3598C32.9164 17.3776 32.8629 17.3861 32.8096 17.3862C32.7562 17.3862 32.7114 17.3958 32.6758 17.4135C32.6045 17.3779 32.5418 17.3417 32.4883 17.3061C32.4527 17.2706 32.3993 17.2438 32.3281 17.226C32.239 17.1904 32.1582 17.1904 32.0869 17.226C32.0157 17.2616 31.9357 17.2979 31.8467 17.3335C31.7577 17.2979 31.6596 17.2712 31.5527 17.2534C31.4458 17.2534 31.3384 17.2438 31.2314 17.226C31.1424 17.1371 31.0625 17.0569 30.9912 16.9858C30.9378 16.9146 30.9016 16.8259 30.8838 16.7192C30.8482 16.6837 30.8129 16.6569 30.7773 16.6391C30.7418 16.6037 30.7151 16.5768 30.6973 16.559C30.626 16.3099 30.5452 16.0963 30.4561 15.9184C30.2065 15.3846 30.0374 14.7972 29.9482 14.1567C29.9126 14.1211 29.8764 14.0858 29.8408 14.0502C29.8052 13.997 29.7613 13.9433 29.708 13.8901C29.6902 13.7299 29.6721 13.5783 29.6543 13.436C29.6365 13.2759 29.6098 13.107 29.5742 12.9292C29.6099 12.8224 29.627 12.7242 29.627 12.6352C29.5913 12.4574 29.5561 12.297 29.5205 12.1547C29.5918 11.9413 29.6631 11.7275 29.7344 11.5141C29.8234 11.3007 29.8501 11.0783 29.8145 10.8471C29.8501 10.776 29.8948 10.714 29.9482 10.6606C30.0017 10.5894 30.0464 10.5265 30.082 10.4731C30.2423 10.2953 30.3584 10.091 30.4297 9.85982C30.4832 9.66412 30.5725 9.49532 30.6973 9.35298C30.8399 9.21063 30.9909 9.09429 31.1514 9.00533C31.3474 8.91637 31.5347 8.82768 31.7129 8.73872C31.9089 8.63198 32.0962 8.54329 32.2744 8.47212C32.3101 8.47213 32.3548 8.4807 32.4082 8.49849C32.4793 8.49848 32.5327 8.48982 32.5684 8.47212C32.8892 8.41874 33.1657 8.40062 33.3975 8.41841C33.5042 8.43616 33.611 8.43613 33.7178 8.41841C33.8247 8.40062 33.9236 8.39204 34.0127 8.39204L34.5742 8.28462C34.681 8.30241 34.7878 8.32918 34.8945 8.3647C35.0015 8.40029 35.1089 8.39171 35.2158 8.33833C35.2513 8.3384 35.2781 8.34697 35.2959 8.3647H35.376C35.465 8.40026 35.5449 8.44516 35.6162 8.49849C35.6875 8.53408 35.7683 8.5522 35.8574 8.5522C36.0533 8.58768 36.178 8.55148 36.2314 8.44478C36.2136 8.14251 36.187 7.94685 36.1514 7.85786C36.1336 7.76896 36.0802 7.62662 35.9912 7.43111C35.9378 7.32444 35.9016 7.21746 35.8838 7.11079C35.866 6.98624 35.8479 6.8699 35.8301 6.76314C35.8123 6.69217 35.7951 6.62987 35.7773 6.57661C35.7773 6.50546 35.7412 6.4339 35.6699 6.36275C35.4382 6.2916 35.153 6.23817 34.8145 6.20259H34.6543C34.4939 6.27377 34.3238 6.31001 34.1455 6.31001C33.9676 6.31004 33.7807 6.32725 33.585 6.36275C33.4602 6.38054 33.3262 6.4168 33.1836 6.47017C33.0588 6.52355 32.9248 6.56739 32.7822 6.60298C32.6396 6.67416 32.4971 6.63889 32.3545 6.49654C32.301 6.33642 32.2744 6.17619 32.2744 6.01607C32.2922 5.83816 32.3103 5.65979 32.3281 5.48189C32.2925 5.35742 32.2478 5.21512 32.1943 5.05513C32.1409 4.87733 32.1143 4.67294 32.1143 4.44185L32.1406 4.25435C32.1228 4.21891 32.0874 4.18334 32.0342 4.1479C31.9985 4.11232 31.9624 4.08562 31.9268 4.06783C31.8733 4.01444 31.8647 3.96105 31.9004 3.90767C31.9004 3.85429 31.927 3.82759 31.9805 3.82759C32.1228 3.79207 32.2563 3.7653 32.3809 3.74751C32.5056 3.72972 32.6311 3.7116 32.7559 3.6938L33.0762 3.37349C33.1118 3.35572 33.1566 3.34714 33.21 3.34712C33.6199 3.4183 33.9145 3.44499 34.0928 3.4272C34.2888 3.40937 34.5827 3.33781 34.9746 3.21333ZM7.92383 0.918411C8.11986 0.98957 8.30714 1.05156 8.48535 1.10493L9.01953 1.21138C9.19772 1.24696 9.3765 1.3004 9.55469 1.37154C9.73281 1.42488 9.90218 1.47835 10.0625 1.53169C10.2407 1.60287 10.4194 1.67439 10.5977 1.74556C10.7759 1.81672 10.9365 1.89685 11.0791 1.98579C11.1502 2.02126 11.2123 2.0481 11.2656 2.06587C11.3369 2.06587 11.3997 2.08399 11.4531 2.11958C11.5421 2.1551 11.6222 2.19051 11.6934 2.22603C11.7646 2.24382 11.8274 2.27053 11.8809 2.30611C11.9343 2.37728 11.979 2.4488 12.0146 2.51997C12.0681 2.59107 12.1309 2.66177 12.2021 2.73286C12.2378 2.7684 12.2816 2.80475 12.335 2.84029C12.3884 2.85808 12.4426 2.88478 12.4961 2.92036C12.6207 2.99151 12.7188 3.0803 12.79 3.18697C12.8791 3.27587 12.9238 3.39146 12.9238 3.53365C12.9238 3.60482 12.9504 3.66776 13.0039 3.72115C13.075 3.77446 13.1199 3.84526 13.1377 3.93404C13.0486 4.11197 12.9773 4.2817 12.9238 4.44185C12.8525 4.6729 12.7097 4.85056 12.4961 4.97505C12.4783 4.99282 12.4602 5.01962 12.4424 5.05513C12.4424 5.07287 12.4337 5.09977 12.416 5.13521C12.4517 5.33088 12.424 5.49972 12.335 5.64204C12.2458 5.78439 12.1394 5.92743 12.0146 6.06978V6.28267C12.0146 6.33605 11.97 6.3723 11.8809 6.39009C11.863 6.37231 11.8183 6.38952 11.7471 6.44283C11.6758 6.47841 11.6311 6.51466 11.6133 6.55025C11.5954 6.62127 11.5421 6.67487 11.4531 6.7104C11.3818 6.72819 11.3191 6.71865 11.2656 6.68306C11.1765 6.57654 11.0518 6.52291 10.8916 6.5229L10.8115 6.44283C10.7937 6.4074 10.7756 6.39009 10.7578 6.39009C10.6509 6.3545 10.5615 6.33638 10.4902 6.33638C10.2231 6.33628 10.0004 6.19406 9.82227 5.90962C9.80444 5.87403 9.76832 5.82922 9.71484 5.77583C9.4833 5.68693 9.26062 5.59813 9.04688 5.50923C8.83298 5.40247 8.60111 5.33095 8.35156 5.29536C8.17339 5.31315 8.00411 5.32172 7.84375 5.32173C7.68333 5.30394 7.50467 5.33064 7.30859 5.40181L6.96094 5.74947C6.83631 5.80277 6.71154 5.84673 6.58691 5.88228C6.47997 5.90007 6.37257 5.92677 6.26562 5.96236C6.17652 6.03351 6.0786 6.08693 5.97168 6.12251C5.86491 6.14032 5.75813 6.19393 5.65137 6.28267C5.59789 6.31826 5.52662 6.4079 5.4375 6.55025V6.84322C5.33073 6.89651 5.23256 6.9232 5.14355 6.92329C5.1079 6.99447 5.08032 7.06599 5.0625 7.13716V7.32368C5.0625 7.5728 5.02735 7.8045 4.95605 8.01802C4.93823 8.14257 4.92017 8.27608 4.90234 8.41841C4.88453 8.56066 4.85788 8.70292 4.82227 8.84517C4.80444 8.86296 4.7959 8.89921 4.7959 8.95259C4.81355 8.98801 4.82227 9.02362 4.82227 9.05904C4.85788 9.14793 4.86645 9.20141 4.84863 9.21919C4.83082 9.34369 4.81371 9.47731 4.7959 9.61958C4.77812 9.74396 4.78673 9.86825 4.82227 9.99263C4.8579 10.1172 4.88452 10.2421 4.90234 10.3667C4.92017 10.4912 4.93823 10.6247 4.95605 10.767C4.9917 10.8382 5.00977 10.9097 5.00977 10.9809C5.02756 11.052 5.0447 11.1323 5.0625 11.2211C5.13378 11.3279 5.21462 11.4252 5.30371 11.5141C5.28591 11.5852 5.27639 11.6655 5.27637 11.7543C5.27637 11.8255 5.26779 11.9057 5.25 11.9946C5.26781 12.1368 5.32117 12.2705 5.41016 12.395C5.49927 12.5017 5.57055 12.6267 5.62402 12.769C5.71315 12.8402 5.812 12.9021 5.91895 12.9555C6.02572 12.9911 6.10576 13.0627 6.15918 13.1694C6.30174 13.2761 6.4358 13.383 6.56055 13.4897C6.70294 13.5963 6.83632 13.712 6.96094 13.8364C7.03224 13.8542 7.09496 13.8723 7.14844 13.8901C7.21971 13.9079 7.29104 13.9346 7.3623 13.9702C7.55831 13.9346 7.75419 13.8983 7.9502 13.8627C8.14625 13.8272 8.35155 13.7833 8.56543 13.7299C8.6188 13.7299 8.67221 13.7386 8.72559 13.7563C8.77904 13.7563 8.84181 13.7649 8.91309 13.7827H9.07324C9.14454 13.7649 9.18921 13.7382 9.20703 13.7026C9.27802 13.6494 9.33156 13.5966 9.36719 13.5434C9.42066 13.4722 9.48339 13.4093 9.55469 13.3559C9.60807 13.3204 9.66146 13.2936 9.71484 13.2758C9.76824 13.2403 9.81301 13.2049 9.84863 13.1694C9.95558 13.0448 10.0449 12.9199 10.1162 12.7954C10.1874 12.671 10.2589 12.5467 10.3301 12.4223C10.3301 12.3156 10.312 12.2087 10.2764 12.102C10.2585 11.9952 10.2319 11.897 10.1963 11.8081C10.1606 11.6479 10.0447 11.5497 9.84863 11.5141C9.70618 11.4786 9.60813 11.47 9.55469 11.4877C9.30515 11.5589 9.0552 11.5856 8.80566 11.5678C8.57423 11.5501 8.34276 11.5587 8.11133 11.5942C8.04003 11.5408 7.94118 11.497 7.81641 11.4614C7.76302 11.3903 7.75459 11.3368 7.79004 11.3012C7.84351 11.1767 7.88818 11.0603 7.92383 10.9536C7.95938 10.8469 7.968 10.7313 7.9502 10.6069C7.9502 10.3223 7.97684 10.0465 8.03027 9.77974C8.08375 9.51283 8.13793 9.25444 8.19141 9.00533C8.29836 8.82756 8.45906 8.73872 8.67285 8.73872C8.8509 8.70318 9.02898 8.66783 9.20703 8.63228C9.38518 8.57893 9.5545 8.50731 9.71484 8.41841C9.87523 8.40062 10.0359 8.40063 10.1963 8.41841C10.3567 8.41841 10.5088 8.45368 10.6514 8.52486C10.8829 8.54265 11.1056 8.56937 11.3193 8.60493C11.5511 8.62273 11.7829 8.62273 12.0146 8.60493C12.0502 8.62268 12.0855 8.6409 12.1211 8.65865C12.1746 8.67644 12.2107 8.70314 12.2285 8.73872C12.2819 8.68541 12.362 8.62326 12.4688 8.5522C12.5578 8.58776 12.6473 8.63168 12.7363 8.68501C12.8255 8.73839 12.9062 8.78321 12.9775 8.8188C13.013 8.83641 13.0573 8.84512 13.1104 8.84517C13.1817 8.84517 13.2444 8.85472 13.2979 8.87251C13.4404 8.94368 13.5745 9.03238 13.6992 9.13911C13.8416 9.24571 13.975 9.31739 14.0996 9.35298C14.2599 9.51298 14.3226 9.67248 14.2871 9.83247C14.2693 9.97481 14.2065 10.1083 14.0996 10.2329C14.0996 10.3395 14.091 10.4465 14.0732 10.5532C14.0732 10.6598 14.0818 10.7669 14.0996 10.8735C14.1174 10.9447 14.1355 11.0343 14.1533 11.1411C14.1889 11.2478 14.1889 11.3987 14.1533 11.5942C14.1355 11.6653 14.1003 11.7723 14.0469 11.9145C14.0112 12.0569 13.9751 12.2085 13.9395 12.3686C13.9216 12.4397 13.9036 12.5113 13.8857 12.5825V12.7426C13.868 12.8314 13.8594 12.9204 13.8594 13.0092V13.1958C13.7346 13.4271 13.6101 13.6588 13.4854 13.8901C13.3785 14.1035 13.2976 14.3345 13.2441 14.5835C13.1729 14.8681 13.0569 15.1351 12.8965 15.3842C12.7361 15.6155 12.5849 15.8559 12.4424 16.1049C12.3711 16.1761 12.3084 16.2476 12.2549 16.3188C12.2015 16.3721 12.1481 16.4343 12.0947 16.5053C11.8987 16.5765 11.7115 16.6661 11.5332 16.7729C11.355 16.8619 11.1943 16.9773 11.0518 17.1196C11.0339 17.1373 10.9986 17.1556 10.9453 17.1733C10.9097 17.1911 10.8735 17.2082 10.8379 17.226C10.6419 17.2972 10.446 17.3773 10.25 17.4663C10.054 17.5552 9.85812 17.6449 9.66211 17.7338L8.93945 17.6264C8.81478 17.6442 8.6901 17.6709 8.56543 17.7065C8.44066 17.7599 8.32472 17.8047 8.21777 17.8403C8.09317 17.8225 7.99509 17.7603 7.92383 17.6538C7.87043 17.6182 7.81707 17.5733 7.76367 17.52C7.71025 17.4844 7.6388 17.4845 7.5498 17.52C7.44292 17.5378 7.3535 17.511 7.28223 17.4399C7.21093 17.3687 7.13014 17.3153 7.04102 17.2797C6.98768 17.2974 6.9342 17.3061 6.88086 17.3061C6.84526 17.3239 6.78319 17.3421 6.69434 17.3598L6.26562 17.2534C6.10536 17.2534 5.95399 17.2801 5.81152 17.3335C5.7224 17.2979 5.63307 17.253 5.54395 17.1997C5.45492 17.1464 5.34822 17.1196 5.22363 17.1196C5.09886 17.1196 4.97341 17.1015 4.84863 17.0659C4.74179 17.0126 4.6256 16.9772 4.50098 16.9594C4.39418 16.9417 4.28746 16.9235 4.18066 16.9057C4.09154 16.8879 4.00221 16.8708 3.91309 16.853C3.84184 16.8174 3.78858 16.7725 3.75293 16.7192C3.71728 16.6658 3.68116 16.6124 3.64551 16.559C3.57433 16.5235 3.52096 16.5053 3.48535 16.5053C3.43191 16.452 3.36908 16.4167 3.29785 16.3989C3.22663 16.3634 3.14661 16.3366 3.05762 16.3188C2.93284 16.2654 2.82545 16.2035 2.73633 16.1323C2.64734 16.0434 2.55871 15.9631 2.46973 15.892C2.34505 15.7498 2.22895 15.6161 2.12207 15.4917C2.033 15.3494 1.9169 15.2158 1.77441 15.0913L1.64062 14.8237C1.55165 14.7171 1.4716 14.6282 1.40039 14.5571C1.34692 14.4859 1.24807 14.4144 1.10547 14.3432H0.785156C0.767357 14.3432 0.749245 14.326 0.731445 14.2905C0.713661 14.255 0.71374 14.2282 0.731445 14.2104C0.74927 14.1392 0.767332 14.0677 0.785156 13.9965C0.802969 13.9076 0.821054 13.8274 0.838867 13.7563C0.838836 13.6674 0.811255 13.5872 0.757812 13.5161C0.722214 13.445 0.686966 13.3647 0.651367 13.2758C0.63353 12.9022 0.570797 12.5465 0.463867 12.2085C0.374765 11.8527 0.27684 11.4969 0.169922 11.1411V10.3667C0.223352 10.3133 0.268076 10.2512 0.303711 10.1801C0.357185 10.109 0.401851 10.046 0.4375 9.99263C0.419702 9.9038 0.401587 9.81486 0.383789 9.72603C0.383798 9.63719 0.392375 9.54826 0.410156 9.45943C0.410156 9.3527 0.4016 9.24584 0.383789 9.13911C0.365964 9.01456 0.347903 8.88965 0.330078 8.76509C0.330149 8.74723 0.339671 8.71181 0.357422 8.65865C0.375247 8.58747 0.383789 8.51595 0.383789 8.44478C0.401574 8.39146 0.410156 8.33794 0.410156 8.28462C0.42793 8.21357 0.427909 8.14278 0.410156 8.07173C0.374542 7.92952 0.366034 7.79579 0.383789 7.67134C0.401614 7.52899 0.419675 7.37738 0.4375 7.21724C0.473104 7.09284 0.508341 6.97721 0.543945 6.87056C0.579595 6.746 0.589114 6.62109 0.571289 6.49654C0.571296 6.38981 0.589357 6.31825 0.625 6.28267C0.71389 6.17604 0.767357 6.06036 0.785156 5.93599C0.802968 5.81153 0.821055 5.696 0.838867 5.58931C0.927986 5.42918 1.02587 5.26897 1.13281 5.10884C1.25758 4.93091 1.40013 4.77929 1.56055 4.65474C1.61389 4.58374 1.66736 4.51285 1.7207 4.44185C1.77416 4.37069 1.8274 4.30772 1.88086 4.25435C2.2017 3.93406 2.45164 3.587 2.62988 3.21333C2.7011 3.16002 2.76396 3.11608 2.81738 3.08052C2.88862 3.04495 2.96002 3.00007 3.03125 2.94673C3.04906 2.89349 3.08438 2.85809 3.1377 2.84029C3.20899 2.48441 3.44086 2.25271 3.83301 2.14595H3.9668C4.03805 2.12817 4.10941 2.11002 4.18066 2.09224C4.23408 2.05668 4.29698 2.01273 4.36816 1.95943C4.4572 1.88833 4.53715 1.83484 4.6084 1.79927C4.66186 1.72811 4.73317 1.6747 4.82227 1.63911C4.91139 1.58573 5.00072 1.54091 5.08984 1.50533C5.19668 1.48752 5.29474 1.45221 5.38379 1.39888C5.47291 1.3277 5.56224 1.27431 5.65137 1.23872C5.86517 1.20318 6.05252 1.21173 6.21289 1.26509C6.5693 1.38956 6.89919 1.36291 7.20215 1.18501C7.32683 1.11394 7.45149 1.07857 7.57617 1.07857C7.71874 1.06078 7.83471 1.00735 7.92383 0.918411ZM109.277 0.944778C109.384 0.962565 109.474 0.971139 109.545 0.971146C109.598 0.971146 109.652 0.962513 109.705 0.944778C109.776 0.926985 109.831 0.918411 109.866 0.918411C110.044 0.918423 110.204 0.927034 110.347 0.944778C110.507 0.944778 110.668 0.962933 110.828 0.998489C111.167 1.05186 111.47 1.06901 111.737 1.05122C111.826 1.03346 111.898 1.03353 111.951 1.05122H112.085C112.21 1.06902 112.299 1.11385 112.353 1.18501C112.424 1.23839 112.477 1.28322 112.513 1.3188C112.798 1.60349 112.861 1.89718 112.7 2.19966C112.682 2.21748 112.673 2.2795 112.673 2.38618C112.691 2.42177 112.7 2.46659 112.7 2.51997C112.718 2.55556 112.736 2.60917 112.754 2.68013C112.807 2.80457 112.834 2.93833 112.834 3.08052C112.852 3.22275 112.816 3.36505 112.727 3.50728C112.691 3.57842 112.673 3.65 112.673 3.72115C112.691 3.77445 112.7 3.84531 112.7 3.93404C112.665 3.98736 112.62 4.04087 112.566 4.09419C112.513 4.12975 112.468 4.18327 112.433 4.25435C112.397 4.28994 112.361 4.33476 112.325 4.38814C112.307 4.44138 112.263 4.4864 112.192 4.52193C112.103 4.50413 111.996 4.49458 111.871 4.49458H111.523C111.256 4.4946 111.016 4.56613 110.802 4.70845C110.73 4.7796 110.659 4.83302 110.588 4.86861C110.517 4.88639 110.445 4.91312 110.374 4.94868C110.267 5.05545 110.231 5.16223 110.267 5.269V5.77583C110.284 5.93595 110.302 6.09619 110.32 6.2563C110.356 6.39865 110.365 6.55883 110.347 6.73677C110.329 6.77234 110.329 6.82591 110.347 6.89693C110.365 6.95031 110.383 6.99513 110.4 7.03072C110.383 7.10175 110.356 7.16394 110.32 7.21724C110.302 7.25283 110.284 7.30624 110.267 7.3774C110.284 7.44857 110.302 7.52009 110.32 7.59126C110.338 7.64458 110.356 7.70674 110.374 7.77779C110.374 7.8667 110.364 7.92872 110.347 7.96431C110.311 8.07099 110.276 8.17794 110.24 8.28462C110.222 8.3913 110.196 8.49826 110.16 8.60493C110.107 8.72949 110.097 8.84583 110.133 8.95259C110.168 9.05926 110.16 9.16624 110.106 9.2729C110.106 9.64638 110.088 10.0109 110.053 10.3667C110.017 10.7224 109.99 11.0783 109.973 11.434C109.973 11.8967 110.053 12.3686 110.214 12.8491C110.285 13.0089 110.4 13.0892 110.561 13.0893C110.596 13.0715 110.632 13.0448 110.668 13.0092C110.721 12.9737 110.775 12.9469 110.828 12.9292C110.882 12.9292 110.926 12.9473 110.962 12.9829C111.104 13.1429 111.265 13.2498 111.443 13.3032C111.728 13.3744 111.808 13.5164 111.684 13.7299C111.63 13.8544 111.604 13.9881 111.604 14.1303C111.621 14.2726 111.621 14.4148 111.604 14.5571C111.568 14.9485 111.55 15.349 111.55 15.7583C111.55 16.1497 111.577 16.5502 111.631 16.9594C111.631 17.1551 111.613 17.2801 111.577 17.3335C111.559 17.4046 111.452 17.5117 111.256 17.6538H111.176C111.033 17.636 110.891 17.6178 110.748 17.6001C110.623 17.5823 110.499 17.5641 110.374 17.5463C110.035 17.5997 109.732 17.6264 109.465 17.6264C109.34 17.6442 109.215 17.671 109.091 17.7065C108.984 17.7599 108.858 17.778 108.716 17.7602C108.573 17.7247 108.431 17.7246 108.288 17.7602C108.146 17.7957 108.003 17.8139 107.86 17.8139C107.789 17.7783 107.718 17.7516 107.646 17.7338C107.593 17.716 107.522 17.6893 107.433 17.6538C107.005 17.7249 106.577 17.7688 106.149 17.7866C105.722 17.8044 105.284 17.8225 104.839 17.8403C104.75 17.7159 104.661 17.6002 104.572 17.4936C104.483 17.4046 104.402 17.3064 104.331 17.1997C104.295 17.0751 104.224 16.9683 104.117 16.8793C104.028 16.7904 103.939 16.7103 103.85 16.6391C103.832 16.4613 103.797 16.2923 103.743 16.1323C103.708 15.9899 103.708 15.8469 103.743 15.7045C103.796 15.6157 103.815 15.5268 103.797 15.4379C103.761 15.2778 103.752 15.1176 103.77 14.9575C103.805 14.7796 103.841 14.6107 103.877 14.4506V14.1303C104.02 14.0948 104.162 14.068 104.305 14.0502C104.447 14.0147 104.59 14.0147 104.732 14.0502C104.804 14.0147 104.866 13.9784 104.92 13.9428C104.973 13.8896 105.035 13.8359 105.106 13.7827C105.196 13.8183 105.285 13.8545 105.374 13.8901C105.463 13.9256 105.561 13.961 105.668 13.9965C105.846 13.8898 106.051 13.7477 106.283 13.5698C106.319 13.4631 106.337 13.3829 106.337 13.3295V12.7426C106.337 12.5291 106.345 12.3241 106.363 12.1284V12.0483C106.292 11.8705 106.265 11.7015 106.283 11.5415C106.301 11.3813 106.301 11.2116 106.283 11.0336V10.687C106.319 10.2777 106.327 9.87723 106.31 9.48579C106.31 9.07662 106.301 8.66743 106.283 8.25826L106.471 7.91158C106.453 7.82261 106.435 7.73297 106.417 7.644C106.399 7.55511 106.381 7.46628 106.363 7.3774C106.381 7.28843 106.399 7.20834 106.417 7.13716C106.453 7.06601 106.479 6.98585 106.497 6.89693C106.497 6.82587 106.488 6.77235 106.471 6.73677C106.382 6.52334 106.346 6.32773 106.363 6.14986V5.74947C106.363 5.67829 106.345 5.6249 106.31 5.58931C106.274 5.53593 106.256 5.47298 106.256 5.40181C106.274 5.36613 106.283 5.28592 106.283 5.16158C106.265 5.05511 106.247 4.94871 106.229 4.84224C106.212 4.73561 106.185 4.62856 106.149 4.52193C106.06 4.43297 105.962 4.40628 105.855 4.44185C105.749 4.45961 105.651 4.45956 105.562 4.44185C105.472 4.40626 105.374 4.38814 105.267 4.38814H104.92C104.795 4.31696 104.652 4.29027 104.491 4.30806C104.349 4.308 104.206 4.2813 104.063 4.22798C103.992 4.13906 103.957 4.03213 103.957 3.90767C103.975 3.7832 103.957 3.69446 103.903 3.64107C103.868 3.56989 103.868 3.48025 103.903 3.37349C103.939 3.24903 103.939 3.14209 103.903 3.05318C103.974 2.96444 103.984 2.90226 103.931 2.86665C103.877 2.83107 103.877 2.75955 103.931 2.65279C103.984 2.56402 104.011 2.46629 104.011 2.35982C104.011 2.23529 104.046 2.13704 104.117 2.06587C104.153 2.03029 104.162 1.97688 104.145 1.90572C104.145 1.81678 104.153 1.73663 104.171 1.66548C104.207 1.62998 104.287 1.6118 104.411 1.61177C104.536 1.59398 104.607 1.56728 104.625 1.53169C104.696 1.44277 104.777 1.38075 104.866 1.34517C104.973 1.3096 105.08 1.26471 105.187 1.21138H105.32C105.374 1.19359 105.437 1.18501 105.508 1.18501H105.962C106.122 1.18501 106.274 1.17644 106.417 1.15865C106.56 1.12308 106.702 1.09635 106.845 1.07857C106.987 1.04302 107.139 1.01628 107.299 0.998489C107.459 0.962911 107.62 0.97151 107.78 1.02486C108.012 1.09601 108.297 1.0874 108.636 0.998489C108.707 0.980696 108.77 0.962572 108.823 0.944778C108.877 0.927004 108.921 0.908842 108.957 0.891068C109.082 0.908832 109.188 0.927014 109.277 0.944778ZM80.2832 0.143997C80.6395 -0.0159408 81.0048 -0.0427648 81.3789 0.0639191C81.5572 0.135094 81.7178 0.135094 81.8604 0.0639191C81.9138 0.117243 81.9671 0.17075 82.0205 0.224075C82.074 0.259663 82.1367 0.304484 82.208 0.357864C82.2792 0.393416 82.3506 0.428759 82.4219 0.46431C82.4931 0.499892 82.5645 0.544736 82.6357 0.598099C82.6358 0.633663 82.6443 0.678578 82.6621 0.731888C82.6799 0.785148 82.6895 0.838784 82.6895 0.892044C82.7251 1.05193 82.7603 1.20302 82.7959 1.34517C82.8316 1.48752 82.8848 1.63913 82.9561 1.79927C82.9916 1.92366 83.0097 2.04793 83.0098 2.17232C83.0098 2.27908 82.9917 2.39542 82.9561 2.51997C82.9382 2.59106 82.9116 2.67139 82.876 2.76021C82.8582 2.8313 82.8496 2.91162 82.8496 3.00044C82.8496 3.05365 82.84 3.09775 82.8223 3.13326C82.7154 3.25775 82.6441 3.39138 82.6084 3.53365C82.5906 3.676 82.564 3.81903 82.5283 3.96138L82.4482 4.04146H82.3145C82.0471 3.84577 81.7981 3.79241 81.5664 3.8813C81.4416 3.8991 81.3162 3.8991 81.1914 3.8813C80.7994 3.77465 80.4428 3.87184 80.1221 4.17427C80.1043 4.19205 80.0776 4.2188 80.042 4.25435C80.0242 4.28994 79.9976 4.32618 79.9619 4.36177C79.9441 4.4684 79.926 4.57546 79.9082 4.68208V5.0024C79.8549 5.07325 79.8013 5.12605 79.748 5.16158C79.6947 5.19711 79.6413 5.24209 79.5879 5.29536C79.5166 5.34873 79.4453 5.42029 79.374 5.50923C79.3027 5.61598 79.3379 5.69608 79.4805 5.74947C79.5338 5.76722 79.5432 5.81141 79.5078 5.88228C79.49 5.95342 79.4805 6.025 79.4805 6.09615C79.4805 6.18511 79.4719 6.25663 79.4541 6.31001C79.4363 6.34567 79.4001 6.43441 79.3467 6.57661C79.3465 6.57713 79.3379 6.61266 79.3203 6.68306C79.3203 6.75417 79.3108 6.83442 79.293 6.92329C79.2395 6.97666 79.1958 7.03965 79.1602 7.11079C79.1246 7.18186 79.0883 7.25262 79.0527 7.32368C78.9814 7.66175 79.0442 7.95544 79.2402 8.20454C79.3471 8.24009 79.4365 8.24967 79.5078 8.23189C79.5967 8.19641 79.6855 8.17822 79.7744 8.17818H80.0156C80.1046 8.16041 80.1846 8.14224 80.2559 8.12447C80.3271 8.0889 80.3985 8.05358 80.4697 8.01802C80.5589 7.98243 80.6396 7.94716 80.7109 7.91158C80.9425 7.87604 81.1651 7.86645 81.3789 7.88423C81.5928 7.88423 81.8066 7.90237 82.0205 7.93794C82.1096 7.95574 82.1904 7.98243 82.2617 8.01802C82.3506 8.03587 82.4041 8.08075 82.4219 8.15181C82.5109 8.24066 82.6004 8.32095 82.6895 8.39204C82.7784 8.46313 82.8671 8.54346 82.9561 8.63228V9.43306C83.0095 9.57516 83.081 9.69948 83.1699 9.80611C83.1521 9.89498 83.1254 9.98383 83.0898 10.0727C83.072 10.1439 83.0549 10.2422 83.0371 10.3667C83.0371 10.4912 83.0723 10.598 83.1436 10.687C83.0901 10.9005 82.9827 11.0521 82.8223 11.1411C82.6977 11.1943 82.5642 11.2384 82.4219 11.2739C82.2971 11.2917 82.1365 11.3632 81.9404 11.4877C81.8692 11.5589 81.7978 11.6477 81.7266 11.7543C81.6018 11.7899 81.4944 11.8166 81.4053 11.8344C81.3164 11.8522 81.2275 11.879 81.1387 11.9145C80.8714 11.8611 80.6575 11.8974 80.4971 12.0219C80.4258 12.0753 80.345 12.102 80.2559 12.102C80.1846 12.0842 80.1046 12.0929 80.0156 12.1284C79.9978 12.164 79.9712 12.2088 79.9355 12.2622C79.9177 12.2977 79.8901 12.3512 79.8545 12.4223C79.7834 12.4401 79.7118 12.4573 79.6406 12.4751C79.5695 12.4928 79.5075 12.511 79.4541 12.5288C79.365 12.5466 79.2756 12.5465 79.1865 12.5288C79.1153 12.511 79.0352 12.5197 78.9463 12.5551C78.9106 12.5729 78.8565 12.5825 78.7852 12.5825C78.7139 12.5647 78.6425 12.5647 78.5713 12.5825C78.5535 12.618 78.5267 12.6622 78.4912 12.7153C78.4734 12.7509 78.4468 12.7871 78.4111 12.8227C78.4289 12.8937 78.4471 12.9646 78.4648 13.0356C78.4827 13.1067 78.5007 13.1869 78.5186 13.2758C78.5364 13.3292 78.5449 13.3922 78.5449 13.4633C78.545 13.5343 78.5535 13.6053 78.5713 13.6762C78.7139 14.0143 78.7139 14.3528 78.5713 14.6909C78.6069 14.8152 78.6336 14.9396 78.6514 15.0639C78.687 15.1707 78.687 15.287 78.6514 15.4116C78.6336 15.4648 78.625 15.5185 78.625 15.5717C78.6428 15.6072 78.6609 15.6514 78.6787 15.7045C78.7144 15.9003 78.7048 16.0786 78.6514 16.2387C78.6336 16.3099 78.625 16.3815 78.625 16.4526C78.6428 16.5059 78.6514 16.5595 78.6514 16.6127C78.6691 16.7194 78.6606 16.8264 78.625 16.9331C78.6071 17.0219 78.5538 17.1108 78.4648 17.1997C78.3044 17.2175 78.1438 17.226 77.9834 17.226C77.823 17.2438 77.6538 17.2801 77.4756 17.3335C77.4043 17.3512 77.3235 17.3598 77.2344 17.3598C77.1632 17.3598 77.0917 17.3684 77.0205 17.3862C76.8246 17.3862 76.6286 17.4129 76.4326 17.4663C76.2901 17.5374 76.1388 17.5287 75.9785 17.4399C75.9073 17.4754 75.8445 17.5108 75.791 17.5463C75.7554 17.5819 75.7021 17.6182 75.6309 17.6538C75.5596 17.6894 75.4788 17.6798 75.3896 17.6264C75.3185 17.5731 75.2737 17.5196 75.2559 17.4663C75.2381 17.413 75.2209 17.3507 75.2031 17.2797C75.1853 17.2264 75.1758 17.1729 75.1758 17.1196V16.6928C75.1758 16.5327 75.1853 16.3811 75.2031 16.2387C75.2388 16.0786 75.2387 15.9183 75.2031 15.7583C75.1853 15.5803 75.1758 15.4201 75.1758 15.2778C75.1758 15.1533 75.1491 15.0646 75.0957 15.0112C75.0244 14.9044 74.9893 14.7881 74.9893 14.6635C74.9892 14.5392 74.9711 14.4148 74.9355 14.2905C74.9177 14.2549 74.9082 14.2186 74.9082 14.1831C74.926 14.1298 74.9355 14.0944 74.9355 14.0766C74.9711 13.9167 74.9892 13.7656 74.9893 13.6235C74.9893 13.4635 74.9797 13.303 74.9619 13.143C74.9619 13.0185 74.9267 12.9288 74.8555 12.8754C74.8376 12.8221 74.8015 12.7868 74.748 12.769C74.6946 12.7334 74.6499 12.7067 74.6143 12.6889C74.4896 12.6712 74.3735 12.6979 74.2666 12.769C74.1776 12.8401 74.0881 12.885 73.999 12.9028C73.7675 12.9205 73.5448 12.9024 73.3311 12.8491C73.1172 12.7779 72.9119 12.7512 72.7158 12.769C72.6484 12.7017 72.613 12.6662 72.6094 12.6626L72.5293 11.8344V11.3813C72.5293 11.2391 72.5112 11.1054 72.4756 10.9809V10.767C72.5112 10.4468 72.5198 10.2417 72.502 10.1528C72.5019 10.046 72.4667 9.86824 72.3955 9.61958C72.4487 9.53105 72.484 9.48623 72.502 9.48579C72.7335 9.48579 72.9476 9.45043 73.1436 9.37935C73.3574 9.2904 73.5628 9.21028 73.7588 9.13911C73.8301 9.06794 73.8928 9.02312 73.9463 9.00533C74.1954 8.80996 74.3735 8.68575 74.4805 8.63228C74.6052 8.56111 74.8106 8.481 75.0957 8.39204C75.2918 7.9828 75.4163 7.5642 75.4697 7.13716C75.5232 6.69232 75.5061 6.24705 75.417 5.8022C75.4346 5.76679 75.4434 5.73117 75.4434 5.69576C75.4612 5.66022 75.4793 5.62484 75.4971 5.58931C75.6931 5.28682 75.7996 4.97503 75.8174 4.65474C75.8352 4.54803 75.8618 4.44114 75.8975 4.33443C75.9331 4.21004 75.9511 4.08577 75.9512 3.96138C75.9333 3.87243 75.9334 3.77417 75.9512 3.66743C75.969 3.56077 75.9871 3.44519 76.0049 3.32076C76.0584 3.21399 76.1211 3.09766 76.1924 2.9731C76.2813 2.8488 76.37 2.72435 76.459 2.60005C76.4946 2.52896 76.5041 2.44866 76.4863 2.35982C76.4863 2.27101 76.5035 2.19066 76.5391 2.11958C76.5925 2.04843 76.6372 1.97687 76.6729 1.90572C76.7085 1.83454 76.7532 1.76302 76.8066 1.69185C76.8423 1.6563 76.887 1.62095 76.9404 1.5854C77.0117 1.53202 77.0745 1.47863 77.1279 1.42525C77.199 1.38974 77.2525 1.35431 77.2881 1.3188C77.3415 1.26546 77.3862 1.21199 77.4219 1.15865C77.511 1.0341 77.6089 0.935875 77.7158 0.8647C77.8405 0.775816 77.9652 0.686983 78.0898 0.598099H78.6787C78.7144 0.562531 78.759 0.535808 78.8125 0.518021C78.8659 0.482485 78.9107 0.455718 78.9463 0.437943C78.9997 0.420074 79.0617 0.375176 79.1328 0.304153C79.2576 0.28636 79.383 0.259663 79.5078 0.224075C79.6324 0.188651 79.7572 0.198108 79.8818 0.251419C79.9529 0.23368 80.015 0.215447 80.0684 0.197708C80.1397 0.179915 80.2119 0.161792 80.2832 0.143997ZM48.2734 1.50533C48.3803 1.50532 48.4783 1.49673 48.5674 1.47896C48.603 1.47896 48.6477 1.48754 48.7012 1.50533H48.8613C49.1643 1.54091 49.4589 1.58573 49.7441 1.63911C50.047 1.69245 50.3409 1.71918 50.626 1.71919C50.6616 1.71919 50.6978 1.72777 50.7334 1.74556C50.7868 1.76333 50.822 1.78151 50.8398 1.79927C50.9111 1.83482 50.9739 1.87878 51.0273 1.93208C51.0095 2.00322 50.9829 2.07482 50.9473 2.14595C50.9116 2.19928 50.885 2.25277 50.8672 2.30611C50.8494 2.37727 50.8313 2.45739 50.8135 2.54634C50.8135 2.63517 50.8049 2.72411 50.7871 2.81294C50.7693 2.93749 50.7512 3.06242 50.7334 3.18697C50.7156 3.31143 50.6889 3.45372 50.6533 3.61372C50.6711 3.63154 50.6797 3.67637 50.6797 3.74751C50.6797 3.81851 50.6883 3.88075 50.7061 3.93404C50.6882 4.05859 50.6616 4.17493 50.626 4.28169C50.6082 4.38829 50.591 4.5127 50.5732 4.65474C50.8049 4.8326 51.054 4.98432 51.3213 5.10884C51.6065 5.2334 51.9457 5.34876 52.3379 5.45552C52.5338 5.58009 52.6489 5.78521 52.6846 6.06978C52.6846 6.47896 52.658 6.88814 52.6045 7.29732C52.5867 7.45745 52.5696 7.61766 52.5518 7.77779C52.5339 7.93793 52.5339 8.09811 52.5518 8.25826C52.3201 8.40058 52.0434 8.47209 51.7227 8.47212C51.6693 8.47212 51.6158 8.48078 51.5625 8.49849C51.5092 8.51622 51.4643 8.5248 51.4287 8.52486C51.1435 8.54265 50.9202 8.56935 50.7598 8.60493C50.6172 8.64054 50.3852 8.7302 50.0645 8.87251C50.0112 8.94362 49.9844 9.04127 49.9844 9.16548C49.9666 9.27221 49.9485 9.37906 49.9307 9.48579C49.9307 9.59243 49.9402 9.70808 49.958 9.83247C49.958 9.83247 49.958 9.84202 49.958 9.85982C49.958 9.85982 49.9399 9.8684 49.9043 9.88618C49.7974 10.0996 49.7175 10.2599 49.6641 10.3667C49.6106 10.4734 49.5745 10.5802 49.5566 10.687V12.5024C49.5567 12.5911 49.5662 12.6448 49.584 12.6626C49.6019 12.8225 49.6818 12.9563 49.8242 13.0629C49.8954 13.0807 49.9583 13.0979 50.0117 13.1157C50.0828 13.1335 50.1363 13.1784 50.1719 13.2495C50.3322 13.4627 50.5102 13.5782 50.7061 13.5961C50.92 13.5961 51.1433 13.5609 51.375 13.4897C51.4463 13.4541 51.5176 13.4188 51.5889 13.3833C51.6601 13.3477 51.7315 13.321 51.8027 13.3032C51.9452 13.3388 52.0347 13.4189 52.0703 13.5434C52.1059 13.6676 52.1681 13.774 52.2568 13.8627C52.3459 13.9516 52.4172 14.05 52.4707 14.1567C52.5419 14.2634 52.6133 14.3703 52.6846 14.477C52.7202 14.5838 52.7649 14.7087 52.8184 14.851C52.8718 14.9755 52.9165 15.1177 52.9521 15.2778C52.863 15.4557 52.7832 15.634 52.7119 15.812C52.6406 15.9898 52.5598 16.1673 52.4707 16.3452L51.9092 16.8793C51.5706 17.2529 51.1694 17.4752 50.7061 17.5463C50.4744 17.5819 50.2338 17.5915 49.9844 17.5737C49.7527 17.5737 49.5122 17.5374 49.2627 17.4663C49.1202 17.4307 48.9689 17.3772 48.8086 17.3061C48.666 17.2527 48.5225 17.1908 48.3799 17.1196C48.2732 17.0664 48.1577 17.0309 48.0332 17.0131C47.9085 16.9776 47.7744 16.9509 47.6318 16.9331C47.5784 16.8975 47.5156 16.8612 47.4443 16.8256C47.3731 16.7723 47.2931 16.7188 47.2041 16.6655C47.0793 16.452 46.9272 16.2565 46.749 16.0786C46.5887 15.9007 46.4641 15.6783 46.375 15.4116C46.375 15.198 46.3665 15.055 46.3486 14.9838C46.3307 14.8948 46.2765 14.7258 46.1875 14.477V12.7153C46.1875 12.573 46.1789 12.4394 46.1611 12.3149C46.1611 12.1726 46.143 12.039 46.1074 11.9145C46.0896 11.7901 46.0811 11.6831 46.0811 11.5942C46.0989 11.5053 46.117 11.3983 46.1348 11.2739C46.1881 11.0605 46.1882 10.8381 46.1348 10.6069C46.1882 10.3934 46.25 10.1797 46.3213 9.96626C46.3213 9.85951 46.2947 9.70782 46.2412 9.51216C46.1878 9.31669 46.1249 9.13031 46.0537 8.95259C45.9648 8.95256 45.876 8.94298 45.7871 8.92525C45.6981 8.90748 45.5999 8.89028 45.4932 8.87251C45.3863 8.90807 45.2702 8.9434 45.1455 8.97896C45.0386 9.01455 44.9131 9.04982 44.7705 9.0854C44.717 9.12092 44.6371 9.1391 44.5303 9.13911C44.5124 9.13911 44.4763 9.12099 44.4229 9.0854C44.3874 9.03232 44.3702 8.99676 44.3701 8.97896C44.3523 8.92561 44.3428 8.87215 44.3428 8.8188V8.65865C44.3249 8.5163 44.3164 8.36469 44.3164 8.20454V7.75142C44.3164 7.60916 44.3069 7.47551 44.2891 7.35103C44.2712 7.20875 44.2446 7.07514 44.209 6.95064L44.3164 6.47017V5.96236C44.3164 5.82022 44.3345 5.69595 44.3701 5.58931C44.4236 5.48255 44.5215 5.38433 44.6641 5.29536C44.771 5.25983 44.887 5.24165 45.0117 5.24165H45.4658C45.6084 5.25944 45.751 5.25943 45.8936 5.24165C46.0538 5.2061 46.1966 5.12674 46.3213 5.0024C46.3569 4.96685 46.4017 4.94872 46.4551 4.94868H46.6152C46.9717 4.96648 47.2844 4.82435 47.5518 4.52193C47.5696 4.41517 47.6228 4.26353 47.7119 4.06783C47.6584 3.94328 47.6138 3.80978 47.5781 3.66743C47.5425 3.50729 47.4978 3.35568 47.4443 3.21333C47.48 3.16 47.5161 3.10652 47.5518 3.05318C47.5873 2.99987 47.6141 2.93767 47.6318 2.86665C47.6675 2.77772 47.6675 2.69757 47.6318 2.62642C47.5962 2.53745 47.5867 2.46593 47.6045 2.41255C47.569 2.32384 47.5518 2.26155 47.5518 2.22603C47.5517 2.19046 47.5336 2.1283 47.498 2.03951C47.5159 2.00392 47.5339 1.96767 47.5518 1.93208C47.5695 1.87909 47.5868 1.83469 47.6045 1.79927C47.6223 1.72827 47.6404 1.6747 47.6582 1.63911C47.676 1.58573 47.6941 1.52279 47.7119 1.45161H48.0059C48.095 1.46941 48.1843 1.48753 48.2734 1.50533ZM90.5342 3.74751C90.8014 3.85411 91.0773 3.88948 91.3623 3.85396C91.5404 3.83618 91.7098 3.84577 91.8701 3.8813C92.0482 3.91686 92.209 3.96078 92.3516 4.01411L92.7266 3.90767C92.869 3.9255 93.0023 3.97036 93.127 4.04146C93.2517 4.11263 93.3772 4.18317 93.502 4.25435H93.7422C93.76 4.27214 93.7781 4.29027 93.7959 4.30806C93.8135 4.30815 93.831 4.31696 93.8486 4.33443C94.0447 4.51236 94.2319 4.6821 94.4102 4.84224C94.5883 4.98452 94.7757 5.13531 94.9717 5.29536C95.2391 5.4733 95.4092 5.68688 95.4805 5.93599C95.5517 6.04259 95.6136 6.12286 95.667 6.17622C95.8809 6.35414 96.0681 6.59448 96.2285 6.89693V7.05708C96.2463 7.11046 96.2559 7.16386 96.2559 7.21724C96.2381 7.30609 96.2553 7.39499 96.3086 7.48384C96.3621 7.57281 96.3982 7.67102 96.416 7.77779C96.3982 7.95572 96.3801 8.14261 96.3623 8.33833C96.3623 8.51624 96.3442 8.6946 96.3086 8.87251C96.2908 9.05032 96.2822 9.24609 96.2822 9.45943C96.2822 9.65503 96.246 9.85934 96.1748 10.0727C96.1392 10.1261 96.0954 10.1891 96.042 10.2602C95.9886 10.3136 95.9343 10.3842 95.8809 10.4731V10.6606C95.8987 10.7139 95.9168 10.776 95.9346 10.8471C95.8989 10.936 95.8456 11.0162 95.7744 11.0874C95.7031 11.1407 95.6318 11.1856 95.5605 11.2211C95.3824 11.2745 95.2131 11.328 95.0527 11.3813C94.9101 11.4347 94.7581 11.4785 94.5977 11.5141C94.3481 11.5497 94.0896 11.5593 93.8223 11.5415C93.555 11.5059 93.2878 11.4963 93.0205 11.5141C92.7888 11.5141 92.5389 11.5237 92.2715 11.5415H89.999C89.9279 11.5947 89.8477 11.6118 89.7588 11.5942C89.6875 11.5764 89.6152 11.5859 89.5439 11.6215C89.4727 11.5861 89.3927 11.586 89.3037 11.6215C89.2146 11.6393 89.1252 11.6298 89.0361 11.5942C88.9649 11.612 88.8935 11.6301 88.8223 11.6479C88.7688 11.6479 88.6974 11.6565 88.6084 11.6743C88.5374 11.6566 88.4752 11.6393 88.4219 11.6215C88.3684 11.586 88.3057 11.5946 88.2344 11.6479C88.2699 11.7012 88.3053 11.7634 88.3408 11.8344C88.3943 11.8878 88.4304 11.9593 88.4482 12.0483C88.5017 12.1195 88.5464 12.191 88.582 12.2622C88.6176 12.3332 88.6529 12.4136 88.6885 12.5024C88.7241 12.5735 88.7507 12.6537 88.7686 12.7426C88.7863 12.8136 88.8045 12.8845 88.8223 12.9555C88.9114 13.0445 89.0093 13.1341 89.1162 13.2231C89.2232 13.3121 89.3306 13.4007 89.4375 13.4897C89.5266 13.5075 89.616 13.5256 89.7051 13.5434C89.8119 13.5612 89.91 13.5784 89.999 13.5961C90.1058 13.6139 90.2125 13.6321 90.3193 13.6499C90.4262 13.6676 90.5424 13.6676 90.667 13.6499C90.7916 13.6143 90.9078 13.623 91.0146 13.6762C91.1215 13.7118 91.2376 13.7385 91.3623 13.7563C91.5227 13.7385 91.6833 13.7204 91.8438 13.7026C92.0219 13.6848 92.1912 13.6676 92.3516 13.6499C92.4228 13.5965 92.4942 13.5516 92.5654 13.5161C92.6546 13.4627 92.7353 13.4093 92.8066 13.3559C93.0383 13.3026 93.2703 13.3121 93.502 13.3833C93.5554 13.472 93.6173 13.5611 93.6885 13.6499C93.7776 13.7388 93.8584 13.8361 93.9297 13.9428C94.0366 14.1028 94.1431 14.2633 94.25 14.4233C94.3569 14.5656 94.4282 14.7354 94.4639 14.9311C94.4995 15.0199 94.5529 15.1089 94.624 15.1977C94.6953 15.2867 94.7495 15.3668 94.7852 15.4379C94.803 15.5269 94.7935 15.607 94.7578 15.6782C94.74 15.7493 94.7229 15.8295 94.7051 15.9184C94.6338 15.9895 94.5443 16.0516 94.4375 16.1049C94.4197 16.1049 94.4016 16.1231 94.3838 16.1586C94.366 16.1942 94.3393 16.2209 94.3037 16.2387C94.1968 16.3099 94.0894 16.3814 93.9824 16.4526C93.8756 16.5237 93.7775 16.5944 93.6885 16.6655C93.4389 16.879 93.1805 16.9858 92.9131 16.9858C92.8063 16.9858 92.7263 16.9954 92.6729 17.0131C92.5837 17.0309 92.4944 17.0662 92.4053 17.1196C92.3162 17.1729 92.2183 17.2178 92.1113 17.2534C92.0222 17.2534 91.9329 17.2619 91.8438 17.2797C91.7547 17.3153 91.6653 17.342 91.5762 17.3598C91.5229 17.3598 91.4606 17.3511 91.3896 17.3335H91.1758C91.0154 17.3512 90.8547 17.3417 90.6943 17.3061C90.5339 17.2705 90.3733 17.2534 90.2129 17.2534C90.1595 17.2356 90.1061 17.2174 90.0527 17.1997C89.9993 17.1819 89.9451 17.1733 89.8916 17.1733C89.5887 17.191 89.3034 17.1462 89.0361 17.0395C88.7688 16.915 88.5017 16.79 88.2344 16.6655C88.0205 16.6121 87.8684 16.5148 87.7793 16.3725C87.6545 16.2302 87.512 16.1138 87.3516 16.0249C87.2092 15.9183 87.049 15.8293 86.8711 15.7583C86.7641 15.7227 86.6568 15.6778 86.5498 15.6245C86.4429 15.5533 86.3268 15.4827 86.2021 15.4116C86.1843 15.3404 86.1577 15.2689 86.1221 15.1977C86.0864 15.1265 86.0503 15.055 86.0146 14.9838C85.979 14.9306 85.9256 14.8769 85.8545 14.8237C85.8011 14.7704 85.7477 14.7168 85.6943 14.6635C85.6409 14.6102 85.5962 14.5481 85.5605 14.477C85.4714 14.1745 85.3821 13.8808 85.293 13.5961C85.2039 13.2937 85.0879 12.9999 84.9453 12.7153C84.9631 12.5909 84.9726 12.4666 84.9727 12.3422C84.9905 12.1999 84.981 12.0483 84.9453 11.8881C84.9275 11.8526 84.9189 11.8077 84.9189 11.7543V11.4077C84.9367 11.3366 84.9367 11.2745 84.9189 11.2211C84.9011 11.0788 84.8831 10.9358 84.8652 10.7934C84.8475 10.6512 84.857 10.5175 84.8926 10.393C84.9282 10.2508 84.9634 10.1085 84.999 9.96626C85.0347 9.82394 85.0794 9.67227 85.1328 9.51216C85.1152 9.47666 85.1065 9.42366 85.1064 9.35298C85.1064 9.28183 85.0969 9.21026 85.0791 9.13911C85.1147 8.9435 85.1509 8.74781 85.1865 8.5522C85.2222 8.35656 85.2669 8.16952 85.3203 7.99165C85.3738 7.88489 85.427 7.78668 85.4805 7.69771C85.5518 7.59095 85.623 7.48415 85.6943 7.3774C85.8191 7.16388 85.917 6.95886 85.9883 6.76314C86.2015 6.65669 86.3263 6.5946 86.3623 6.57661C86.4158 6.54103 86.4604 6.49621 86.4961 6.44283C86.5318 6.3894 86.6478 6.28253 86.8438 6.12251C86.8263 6.06913 86.8709 5.98875 86.9775 5.88228C87.0843 5.77561 87.1206 5.68681 87.085 5.61568C87.2453 5.31339 87.4765 5.07285 87.7793 4.89497C87.8862 4.8238 87.9851 4.75325 88.0742 4.68208C88.181 4.59329 88.2696 4.51292 88.3408 4.44185C88.4299 4.38847 88.5107 4.37034 88.582 4.38814H88.8223C88.8757 4.37034 88.9299 4.36177 88.9834 4.36177C89.0546 4.344 89.1261 4.32583 89.1973 4.30806C89.2328 4.29035 89.2769 4.27206 89.3301 4.25435C89.3835 4.23656 89.4282 4.20983 89.4639 4.17427C89.4995 4.15649 89.5357 4.13932 89.5713 4.12154C89.6068 4.1038 89.6422 4.09425 89.6777 4.09419C89.8382 4.0764 89.9902 4.03255 90.1328 3.96138C90.2754 3.89021 90.4094 3.81869 90.5342 3.74751ZM134.766 4.01411C134.819 4.03186 134.854 4.05008 134.872 4.06783C135.318 4.45929 135.826 4.68144 136.396 4.73482C136.486 4.73483 136.575 4.75295 136.664 4.78853C136.753 4.82405 136.833 4.85945 136.904 4.89497L137.466 5.45552C137.644 5.59787 137.707 5.77618 137.653 5.9897V6.09615C137.671 6.13158 137.68 6.16715 137.68 6.20259C137.591 6.3449 137.511 6.49661 137.439 6.65669C137.368 6.79896 137.332 6.96794 137.332 7.16353C137.189 7.2525 137.055 7.36883 136.931 7.51118C136.824 7.65338 136.726 7.80436 136.637 7.96431C136.565 8.08887 136.494 8.21378 136.423 8.33833C136.369 8.44504 136.298 8.56054 136.209 8.68501C136.191 8.72058 136.156 8.72055 136.103 8.68501C136.067 8.64954 136.04 8.60536 136.022 8.5522C136.022 8.48102 135.986 8.44478 135.915 8.44478C135.862 8.4448 135.817 8.47155 135.781 8.52486C135.746 8.54266 135.71 8.57893 135.675 8.63228C135.639 8.66785 135.603 8.70316 135.567 8.73872C135.55 8.75645 135.514 8.7747 135.461 8.79243C135.425 8.79243 135.389 8.80101 135.354 8.8188C135.282 8.74773 135.202 8.68561 135.113 8.63228C135.024 8.56113 134.935 8.48956 134.846 8.41841C134.739 8.38282 134.631 8.34755 134.524 8.31197C134.418 8.27641 134.32 8.24967 134.23 8.23189C134.159 8.19636 134.133 8.17823 134.15 8.17818C134.097 8.14259 134.052 8.09776 134.017 8.04439C133.981 7.99132 133.919 7.98267 133.83 8.01802C133.777 8.0714 133.749 8.1248 133.749 8.17818C133.767 8.21376 133.767 8.26716 133.749 8.33833C133.625 8.33835 133.536 8.34702 133.482 8.3647C133.447 8.38249 133.411 8.40062 133.375 8.41841C133.339 8.43619 133.295 8.45435 133.241 8.47212C133.188 8.45438 133.126 8.44481 133.055 8.44478C132.983 8.42698 132.903 8.40984 132.813 8.39204C132.653 8.40986 132.492 8.46326 132.332 8.5522C132.19 8.6233 132.047 8.69399 131.904 8.76509C131.797 8.78294 131.717 8.85448 131.664 8.97896C131.593 9.15687 131.485 9.32567 131.343 9.48579C131.2 9.64582 131.076 9.81483 130.969 9.99263C130.951 10.0282 130.924 10.0818 130.889 10.1528C130.853 10.2061 130.817 10.2596 130.781 10.3129C130.763 10.3662 130.746 10.4199 130.729 10.4731V10.6069C130.764 10.7136 130.799 10.7852 130.835 10.8208C130.799 10.8741 130.764 10.9276 130.729 10.9809C130.693 11.0343 130.657 11.0877 130.621 11.1411C130.639 11.1944 130.647 11.2479 130.647 11.3012C130.647 11.3544 130.657 11.3986 130.675 11.434C130.728 11.612 130.8 11.755 130.889 11.8618C130.942 11.9329 130.987 12.0132 131.022 12.102C131.058 12.1731 131.103 12.262 131.156 12.3686C131.227 12.4219 131.299 12.4754 131.37 12.5288C131.441 12.5821 131.513 12.6442 131.584 12.7153C131.655 12.7864 131.717 12.858 131.771 12.9292C131.842 12.9825 131.905 13.0446 131.958 13.1157C132.029 13.0979 132.092 13.0893 132.146 13.0893C132.217 13.0893 132.297 13.0807 132.386 13.0629C132.421 13.0807 132.458 13.0979 132.493 13.1157C132.546 13.1157 132.59 13.1253 132.626 13.143C132.751 13.1608 132.867 13.178 132.974 13.1958C133.098 13.2135 133.214 13.1962 133.321 13.143C133.464 13.1074 133.616 13.0712 133.776 13.0356C133.937 12.9823 134.079 12.9469 134.204 12.9292C134.329 12.9469 134.445 12.9737 134.552 13.0092C134.676 13.0448 134.801 13.0801 134.926 13.1157C135.05 13.0268 135.175 12.9561 135.3 12.9028C135.442 12.8316 135.594 12.7868 135.755 12.769C135.915 12.8224 136.031 12.9206 136.103 13.0629C136.174 13.1518 136.227 13.2494 136.263 13.3559C136.316 13.4626 136.369 13.5695 136.423 13.6762C136.458 13.8006 136.503 13.9163 136.557 14.0229C136.628 14.1295 136.699 14.2366 136.771 14.3432C136.824 14.4143 136.877 14.4947 136.931 14.5835C137.002 14.6723 137.056 14.7526 137.092 14.8237C137.145 15.1084 137.127 15.3582 137.038 15.5717C136.913 15.6606 136.789 15.7581 136.664 15.8647C136.539 15.9715 136.414 16.0783 136.289 16.185C136.253 16.2562 136.218 16.3277 136.183 16.3989C136.147 16.4522 136.111 16.5143 136.075 16.5854C136.004 16.6032 135.933 16.6299 135.861 16.6655C135.79 16.6833 135.719 16.7196 135.647 16.7729C135.594 16.7906 135.532 16.8079 135.461 16.8256C135.407 16.8256 135.345 16.8438 135.273 16.8793C135.166 16.9505 135.032 17.0306 134.872 17.1196C134.747 17.0485 134.605 17.0036 134.444 16.9858C134.32 17.0747 134.177 17.1196 134.017 17.1196C133.856 17.1196 133.705 17.1377 133.562 17.1733C133.402 17.1911 133.25 17.173 133.107 17.1196C132.983 17.0485 132.849 16.995 132.707 16.9594L132.332 17.146L131.771 16.9594C131.699 16.9772 131.619 16.9858 131.53 16.9858C131.459 16.9858 131.379 16.9954 131.29 17.0131C131.219 16.9776 131.138 16.9413 131.049 16.9057C130.96 16.8702 130.87 16.8434 130.781 16.8256H130.595C130.541 16.8256 130.479 16.8352 130.407 16.853C130.3 16.7818 130.22 16.7189 130.167 16.6655C130.096 16.6121 130.024 16.5587 129.953 16.5053C129.882 16.4342 129.801 16.3903 129.712 16.3725C129.409 16.2124 129.15 16.0074 128.937 15.7583C128.812 15.616 128.679 15.4823 128.536 15.3579C128.411 15.2155 128.259 15.082 128.081 14.9575C127.992 14.8685 127.894 14.7435 127.787 14.5835C127.751 14.3523 127.672 14.1384 127.547 13.9428C127.422 13.7294 127.297 13.5252 127.172 13.3295C127.19 13.205 127.172 13.0982 127.118 13.0092C127.065 12.9203 127.021 12.822 126.985 12.7153C127.021 12.5731 127.029 12.422 127.012 12.2622C127.012 12.0842 127.02 11.9059 127.038 11.728C127.056 11.639 127.003 11.5322 126.878 11.4077C126.878 11.3365 126.896 11.2917 126.932 11.2739C126.985 11.2384 127.02 11.1942 127.038 11.1411C127.127 11.0877 127.172 10.998 127.172 10.8735C127.136 10.838 127.101 10.7938 127.065 10.7407C127.048 10.6697 127.021 10.6161 126.985 10.5805C127.021 10.5094 127.056 10.4292 127.092 10.3403C127.127 10.2514 127.145 10.1712 127.146 10.1001V9.61958C127.217 9.51282 127.288 9.43273 127.359 9.37935C127.359 9.23718 127.306 9.15704 127.199 9.13911C127.11 9.12133 127.039 9.07646 126.985 9.00533C127.11 8.59633 127.19 8.34725 127.226 8.25826C127.279 8.1515 127.386 7.98273 127.547 7.75142C127.565 7.55569 127.573 7.35926 127.573 7.16353C127.573 6.96795 127.645 6.7636 127.787 6.55025C127.823 6.53245 127.867 6.49621 127.921 6.44283C127.974 6.38954 128.028 6.33596 128.081 6.28267C128.117 6.19382 128.143 6.11353 128.161 6.04243C128.197 5.95358 128.223 5.8733 128.241 5.8022C128.348 5.71323 128.456 5.63314 128.562 5.56197C128.669 5.47307 128.785 5.38426 128.91 5.29536C128.946 5.25993 128.981 5.23305 129.017 5.21529C129.07 5.19749 129.133 5.17937 129.204 5.16158C129.293 5.14379 129.373 5.10842 129.444 5.05513C129.516 5.0018 129.587 4.94831 129.658 4.89497C129.694 4.91273 129.739 4.92228 129.792 4.92232C129.845 4.92232 129.9 4.93089 129.953 4.94868C130.096 4.9131 130.22 4.85098 130.327 4.76216C130.434 4.67319 130.55 4.57498 130.675 4.46822C130.889 4.41485 131.103 4.37001 131.316 4.33443C131.548 4.28106 131.762 4.21046 131.958 4.12154C132.083 4.12154 132.199 4.14823 132.306 4.20161C132.43 4.25489 132.555 4.24536 132.68 4.17427C132.715 4.13873 132.76 4.13882 132.813 4.17427C132.992 4.17427 133.17 4.18382 133.349 4.20161C133.545 4.2194 133.732 4.23656 133.91 4.25435C134.177 4.28985 134.391 4.22791 134.552 4.06783L134.658 3.96138C134.694 3.97917 134.73 3.99632 134.766 4.01411ZM20.8223 4.28169C20.9649 4.28169 21.0989 4.29027 21.2236 4.30806H21.4639C21.6598 4.37918 21.8558 4.41445 22.0518 4.41451C22.2656 4.41451 22.471 4.40592 22.667 4.38814H22.9346C23.0415 4.37035 23.1394 4.36178 23.2285 4.36177C23.3176 4.43289 23.3889 4.49494 23.4424 4.54829C23.5137 4.58388 23.585 4.63729 23.6562 4.70845C23.7096 4.72622 23.763 4.75303 23.8164 4.78853C23.8699 4.8241 23.9326 4.85081 24.0039 4.86861C24.2535 4.8864 24.4768 4.96649 24.6729 5.10884C24.8866 5.25111 25.0826 5.39333 25.2607 5.5356V5.69576C25.2607 5.74907 25.2693 5.80259 25.2871 5.85591C25.2871 5.94488 25.3413 6.02497 25.4482 6.09615C25.5016 6.11385 25.5637 6.12249 25.6348 6.12251C25.706 6.12251 25.7774 6.14072 25.8486 6.17622C25.8843 6.24737 25.929 6.32754 25.9824 6.41646C26.0537 6.50536 26.1165 6.59415 26.1699 6.68306C26.2412 6.75423 26.3125 6.82575 26.3838 6.89693C26.455 6.96807 26.5083 7.04824 26.5439 7.13716C26.5796 7.17275 26.6062 7.21757 26.624 7.27095C26.6595 7.32408 26.6863 7.36827 26.7041 7.40376C26.7576 7.45714 26.8118 7.51054 26.8652 7.56392C26.9187 7.6173 26.9539 7.68883 26.9717 7.77779C27.0073 7.90234 27.0605 8.02725 27.1318 8.15181C27.2031 8.27634 27.2573 8.40989 27.293 8.5522C27.3108 8.60543 27.3375 8.65913 27.373 8.71236C27.4264 8.76567 27.4798 8.82783 27.5332 8.89888C27.5688 9.05894 27.5955 9.22788 27.6133 9.40572C27.6489 9.58358 27.7032 9.75247 27.7744 9.91255C27.8279 10.1261 27.8184 10.3225 27.7471 10.5004C27.7115 10.5893 27.6848 10.6782 27.667 10.767C27.6492 10.8559 27.6492 10.9448 27.667 11.0336C27.6848 11.0514 27.6847 11.0783 27.667 11.1137V11.1938C27.5957 11.3362 27.5605 11.4878 27.5605 11.6479C27.5784 11.808 27.5955 11.9597 27.6133 12.102L27.3457 12.4751V12.8227C27.3102 12.8582 27.266 12.9025 27.2129 12.9555C27.1595 12.9911 27.088 13.0446 26.999 13.1157C26.9634 13.2402 26.9092 13.3737 26.8379 13.5161C26.7844 13.6584 26.7397 13.7919 26.7041 13.9165V14.1831C26.6329 14.2542 26.5443 14.3172 26.4375 14.3706C26.3306 14.4239 26.2412 14.504 26.1699 14.6108C26.0987 14.6641 26.0272 14.708 25.9561 14.7436C25.8848 14.7792 25.804 14.824 25.7148 14.8774C25.6792 14.8951 25.6344 14.9038 25.5811 14.9038C25.5456 14.8863 25.51 14.8861 25.4746 14.9038C25.2073 14.9038 25.0733 15.0287 25.0732 15.2778C24.8772 15.4023 24.6814 15.5359 24.4854 15.6782C24.3071 15.8205 24.1198 15.9626 23.9238 16.1049C23.6208 16.3363 23.2283 16.4964 22.7471 16.5854C22.5868 16.6032 22.4355 16.6481 22.293 16.7192C22.1504 16.7726 21.9983 16.8174 21.8379 16.853C21.8024 16.8529 21.7582 16.8433 21.7051 16.8256C21.6518 16.8079 21.6069 16.808 21.5713 16.8256C21.3574 16.8434 21.1341 16.8263 20.9023 16.7729C20.8311 16.7551 20.7597 16.7551 20.6885 16.7729C20.6175 16.7906 20.5553 16.8079 20.502 16.8256C20.3772 16.8078 20.2517 16.7907 20.127 16.7729C20.0024 16.7551 19.8689 16.737 19.7266 16.7192C19.5661 16.648 19.4141 16.5679 19.2715 16.479C19.1467 16.39 19.0127 16.3099 18.8701 16.2387C18.7633 16.2031 18.6652 16.141 18.5762 16.0522C18.487 15.9632 18.4158 15.8736 18.3623 15.7846C18.3445 15.7492 18.3178 15.7223 18.2822 15.7045C18.2644 15.6691 18.2377 15.6336 18.2021 15.5981C18.1488 15.5626 18.0954 15.5358 18.042 15.518C17.9885 15.4824 17.9343 15.4376 17.8809 15.3842C17.5958 15.1886 17.3371 14.9748 17.1055 14.7436C16.8918 14.5124 16.7319 14.2278 16.625 13.8901C16.5359 13.6588 16.4285 13.4538 16.3037 13.2758C16.2681 13.2047 16.2234 13.1426 16.1699 13.0893C16.1343 13.0181 16.0991 12.9466 16.0635 12.8754C16.0813 12.8398 16.1081 12.7688 16.1436 12.6626C16.1079 12.6092 16.0717 12.5557 16.0361 12.5024C16.0005 12.449 15.9824 12.3861 15.9824 12.3149C15.9824 12.2616 15.9739 12.208 15.9561 12.1547C15.9561 12.0838 15.9647 12.0128 15.9824 11.9418C16.0181 11.8173 16.0276 11.6924 16.0098 11.5678C15.9919 11.4433 15.9919 11.3184 16.0098 11.1938C16.0275 11.0871 16.018 10.9715 15.9824 10.8471C15.9646 10.7227 15.9828 10.6071 16.0361 10.5004C16.0718 10.3759 16.0984 10.2595 16.1162 10.1528C16.134 10.0461 16.1617 9.93912 16.1973 9.83247C16.2328 9.72599 16.2681 9.62828 16.3037 9.53951C16.3394 9.43274 16.3755 9.33453 16.4111 9.24556C16.4468 9.13889 16.482 9.03191 16.5176 8.92525C16.5532 8.81859 16.6065 8.70298 16.6777 8.57857V8.44478C16.6778 8.39153 16.6873 8.3561 16.7051 8.33833C16.7764 8.19602 16.8296 8.06247 16.8652 7.93794C16.9009 7.81339 16.9094 7.68848 16.8916 7.56392C16.9628 7.47505 17.0257 7.40439 17.0791 7.35103C17.1326 7.29765 17.1772 7.2347 17.2129 7.16353C17.2485 7.07469 17.2837 6.99439 17.3193 6.92329C17.3728 6.83435 17.427 6.75422 17.4805 6.68306C17.5339 6.54096 17.614 6.41663 17.7207 6.31001C17.792 6.22104 17.8547 6.14953 17.9082 6.09615C17.9616 6.02505 18.0064 5.97155 18.042 5.93599C18.0954 5.82937 18.1125 5.7405 18.0947 5.66939C18.0769 5.58042 18.0684 5.5089 18.0684 5.45552C18.104 5.36663 18.1306 5.31316 18.1484 5.29536C18.2019 5.27757 18.2466 5.25087 18.2822 5.21529C18.3356 5.17976 18.389 5.153 18.4424 5.13521C18.585 5.04624 18.737 4.95758 18.8975 4.86861C19.0578 4.77966 19.2185 4.70811 19.3789 4.65474C19.539 4.54822 19.6992 4.47745 19.8594 4.44185C20.0376 4.38848 20.2163 4.33506 20.3945 4.28169H20.8223ZM30.8838 16.7192C30.9192 16.6838 30.9285 16.6657 30.9111 16.6655C30.9111 16.6655 30.9016 16.6655 30.8838 16.6655C30.8838 16.6655 30.8838 16.6836 30.8838 16.7192ZM117.776 5.18892C117.937 5.18892 118.044 5.20613 118.098 5.24165C118.329 5.31281 118.552 5.31278 118.766 5.24165C118.926 5.20609 119.069 5.25109 119.193 5.37544C119.372 5.41103 119.542 5.4463 119.702 5.48189C119.862 5.51746 120.032 5.55374 120.21 5.58931C120.281 5.57154 120.353 5.56197 120.424 5.56197C120.495 5.54419 120.566 5.527 120.638 5.50923C120.816 5.58041 120.959 5.68724 121.065 5.82954C121.19 5.95406 121.315 6.08764 121.439 6.22993C121.528 6.30102 121.627 6.32767 121.733 6.31001C121.84 6.29223 121.956 6.30086 122.081 6.33638C122.17 6.42535 122.26 6.52356 122.349 6.63033C122.456 6.73705 122.563 6.83435 122.67 6.92329C122.688 6.99443 122.705 7.06602 122.723 7.13716C122.758 7.19049 122.786 7.25259 122.804 7.32368C122.893 7.34152 122.955 7.38644 122.99 7.45747C123.026 7.52849 123.052 7.5907 123.07 7.644C123.249 7.71517 123.427 7.76857 123.605 7.80415C123.695 7.89304 123.774 8.00005 123.846 8.12447C123.917 8.23118 124.033 8.28457 124.193 8.28462C124.229 8.4625 124.265 8.62278 124.301 8.76509C124.336 8.90744 124.372 9.05048 124.407 9.19283C124.443 9.45952 124.506 9.69057 124.595 9.88618C124.666 10.0285 124.729 10.1801 124.782 10.3403C124.836 10.4826 124.862 10.643 124.862 10.8208C124.88 10.9273 124.915 11.0249 124.969 11.1137C125.04 11.2026 125.093 11.301 125.129 11.4077C125.111 11.4788 125.094 11.5504 125.076 11.6215V12.0483C125.094 12.1017 125.111 12.1733 125.129 12.2622V12.4223C125.147 12.4756 125.147 12.5196 125.129 12.5551C125.093 12.6797 125.085 12.8046 125.103 12.9292C125.12 13.0536 125.129 13.1691 125.129 13.2758V13.7299C125.147 13.8722 125.138 14.0144 125.103 14.1567C125.067 14.2456 125.058 14.3258 125.076 14.3969C125.112 14.4859 125.112 14.5841 125.076 14.6909C125.058 14.7798 125.058 14.8686 125.076 14.9575C125.112 15.0819 125.12 15.2242 125.103 15.3842C125.085 15.5266 125.085 15.6696 125.103 15.812C125.031 15.9363 124.915 15.9985 124.755 15.9985C124.577 15.9985 124.381 16.0071 124.167 16.0249C123.971 16.0426 123.775 16.0876 123.579 16.1586C123.472 16.1942 123.356 16.2123 123.231 16.2124H122.856C122.75 16.1412 122.67 16.0782 122.616 16.0249C122.402 16.096 122.224 16.0159 122.081 15.7846C122.01 15.678 121.948 15.5623 121.895 15.4379C121.859 15.3134 121.841 15.1799 121.841 15.0376C121.859 14.8953 121.859 14.753 121.841 14.6108C121.823 14.4684 121.823 14.3168 121.841 14.1567C121.876 13.8899 121.84 13.6322 121.733 13.3833C121.716 13.33 121.698 13.2763 121.681 13.2231C121.663 13.1699 121.653 13.1162 121.653 13.0629C121.653 12.8672 121.645 12.6708 121.627 12.4751C121.609 12.2616 121.573 12.066 121.52 11.8881C121.502 11.7992 121.485 11.719 121.467 11.6479V11.4077C121.413 11.1943 121.297 11.0254 121.119 10.9008C121.101 10.7585 121.083 10.6336 121.065 10.5268C121.048 10.4023 121.021 10.2687 120.985 10.1264C120.95 10.0908 120.878 10.0374 120.771 9.96626C120.7 9.91288 120.611 9.86806 120.504 9.83247C120.415 9.79689 120.325 9.75302 120.236 9.69966C120.201 9.66407 120.156 9.61925 120.103 9.56587C120.067 9.49479 120.022 9.43267 119.969 9.37935H119.809C119.737 9.39713 119.675 9.41528 119.621 9.43306C119.568 9.43301 119.496 9.42346 119.407 9.40572C119.372 9.38817 119.327 9.38814 119.274 9.40572H119.141C119.052 9.53022 118.962 9.66382 118.873 9.80611C118.802 9.85945 118.73 9.91292 118.659 9.96626C118.606 10.0018 118.561 10.0372 118.525 10.0727C118.472 10.1259 118.445 10.1796 118.445 10.2329L118.258 10.7934C118.293 10.9001 118.293 11.0071 118.258 11.1137C118.222 11.2027 118.232 11.3009 118.285 11.4077C118.303 11.461 118.303 11.5145 118.285 11.5678C118.267 11.6212 118.249 11.666 118.231 11.7016C118.178 11.7727 118.168 11.8262 118.204 11.8618C118.24 11.8973 118.267 11.9413 118.285 11.9946C118.303 12.0124 118.32 12.0487 118.338 12.102V12.7153C118.338 12.911 118.303 13.1074 118.231 13.3032C118.249 13.3741 118.258 13.4451 118.258 13.5161C118.276 13.5694 118.294 13.641 118.312 13.7299C118.294 13.8365 118.267 13.9609 118.231 14.103C118.214 14.2274 118.214 14.3612 118.231 14.5034C118.249 14.5923 118.249 14.6906 118.231 14.7973C118.231 14.9041 118.213 15.0109 118.178 15.1176C118.16 15.171 118.16 15.2244 118.178 15.2778C118.231 15.4913 118.231 15.6782 118.178 15.8383C118.124 15.9984 118.026 16.1673 117.884 16.3452C117.866 16.363 117.83 16.3811 117.776 16.3989C117.723 16.4166 117.678 16.4348 117.643 16.4526C117.607 16.488 117.572 16.5149 117.536 16.5327C117.5 16.5327 117.464 16.5412 117.429 16.559H117.215C117.144 16.5413 117.082 16.5327 117.028 16.5327C116.957 16.5505 116.894 16.5772 116.841 16.6127C116.805 16.6306 116.742 16.6659 116.653 16.7192C116.422 16.6836 116.181 16.6388 115.932 16.5854C115.7 16.5321 115.468 16.5502 115.236 16.6391C115.13 16.6213 115.041 16.5764 114.97 16.5053C114.898 16.4342 114.836 16.3541 114.782 16.2651C114.711 16.1584 114.666 16.0429 114.648 15.9184C114.631 15.7761 114.604 15.6426 114.568 15.518C114.604 15.2155 114.622 15.0105 114.622 14.9038C114.622 14.779 114.594 14.5118 114.541 14.103C114.594 13.8184 114.631 13.534 114.648 13.2495C114.666 12.947 114.675 12.6533 114.675 12.3686V11.2211C114.675 10.8297 114.684 10.4378 114.702 10.0463C114.702 9.93962 114.711 9.83275 114.729 9.72603C114.746 9.61949 114.764 9.52188 114.782 9.43306C114.818 9.23751 114.853 9.0503 114.889 8.87251C114.924 8.69457 114.969 8.52484 115.022 8.3647C115.058 8.24021 115.121 8.13332 115.21 8.04439C115.299 7.95545 115.362 7.84856 115.397 7.72408C115.433 7.47511 115.504 7.26131 115.611 7.08345C115.736 6.88786 115.861 6.70072 115.985 6.5229C116.075 6.27405 116.235 6.17658 116.467 6.22993C116.502 6.2299 116.521 6.22035 116.521 6.20259C116.574 6.1493 116.582 6.07832 116.547 5.9897C116.529 5.90078 116.556 5.82061 116.627 5.74947C116.787 5.60713 116.975 5.50033 117.188 5.42915C117.402 5.34024 117.598 5.26006 117.776 5.18892ZM34.4131 11.1411C34.2529 11.1411 34.1014 11.1851 33.959 11.2739C33.8877 11.3272 33.8249 11.3807 33.7715 11.434C33.7181 11.4696 33.6647 11.5231 33.6113 11.5942L33.2637 12.2348C33.2993 12.3416 33.344 12.4398 33.3975 12.5288C33.4509 12.5999 33.4509 12.7068 33.3975 12.8491C33.4331 13.0091 33.4683 13.1781 33.5039 13.3559C33.5574 13.516 33.6287 13.6763 33.7178 13.8364C33.7534 13.872 33.781 13.8901 33.7988 13.8901C33.9947 13.9256 34.1908 13.9428 34.3867 13.9428C34.5827 13.9428 34.77 13.9342 34.9482 13.9165C35.0194 13.9164 35.0728 13.9078 35.1084 13.8901C35.3044 13.7834 35.545 13.6851 35.8301 13.5961C35.937 13.5784 36.0349 13.4982 36.124 13.3559C36.1953 13.1958 36.2676 13.027 36.3389 12.8491C36.4102 12.6534 36.49 12.4664 36.5791 12.2885C36.4722 12.0216 36.3382 11.8433 36.1777 11.7543C35.9818 11.6654 35.8572 11.5499 35.8037 11.4077C35.7859 11.3365 35.7498 11.2917 35.6963 11.2739C35.643 11.2561 35.5894 11.2389 35.5361 11.2211C35.4649 11.2212 35.3754 11.2297 35.2686 11.2475C35.1797 11.2475 35.0908 11.2562 35.002 11.2739C34.895 11.2739 34.7876 11.2567 34.6807 11.2211C34.5915 11.1856 34.5022 11.1589 34.4131 11.1411ZM21.999 8.17818C21.7852 8.07143 21.5266 8.06288 21.2236 8.15181C21.2059 8.15181 21.1791 8.16048 21.1436 8.17818C21.1257 8.19597 21.0982 8.22267 21.0625 8.25826H20.9297C20.6445 8.20487 20.4573 8.31168 20.3682 8.57857C20.3325 8.64973 20.2878 8.72985 20.2344 8.8188C20.1987 8.88998 20.1721 8.97007 20.1543 9.05904C20.1365 9.1302 20.1003 9.21032 20.0469 9.29927C19.9935 9.3703 19.9487 9.44113 19.9131 9.51216C19.8775 9.55658 19.8446 9.60393 19.8135 9.65279L19.6396 9.95943C19.6084 10.0085 19.5748 10.0554 19.5391 10.1001C19.5212 10.2778 19.4765 10.4555 19.4053 10.6333C19.3518 10.8112 19.3157 10.9809 19.2979 11.1411C19.3513 11.23 19.4055 11.3273 19.459 11.434C19.5125 11.523 19.5571 11.6126 19.5928 11.7016C19.6996 11.9328 19.7444 12.1552 19.7266 12.3686C19.7266 12.4041 19.7352 12.4395 19.7529 12.4751C19.7708 12.5106 19.7888 12.5469 19.8066 12.5825C19.9669 12.618 20.1183 12.6534 20.2607 12.6889C20.4212 12.7245 20.5732 12.7693 20.7158 12.8227C20.8404 12.8582 20.9652 12.885 21.0898 12.9028C21.2145 12.9205 21.3392 12.9024 21.4639 12.8491H21.5439C21.6865 12.8847 21.8205 12.8932 21.9453 12.8754C22.0878 12.8399 22.2392 12.8045 22.3994 12.769C22.5242 12.68 22.6496 12.5818 22.7744 12.4751C22.9169 12.3684 23.0597 12.2796 23.2021 12.2085C23.3269 11.9595 23.4781 11.7371 23.6562 11.5415C23.8345 11.3457 23.96 11.1226 24.0312 10.8735C24.049 10.7491 24.031 10.642 23.9775 10.5532C23.9242 10.4465 23.906 10.3396 23.9238 10.2329C23.9236 10.1974 23.8969 10.1531 23.8438 10.1001C23.8259 10.0645 23.8164 9.99295 23.8164 9.88618C23.8342 9.8506 23.8438 9.80578 23.8438 9.7524V9.61958C23.719 9.42385 23.603 9.24555 23.4961 9.0854C23.3892 8.90753 23.2732 8.73866 23.1484 8.57857C23.1484 8.54298 23.1304 8.52486 23.0947 8.52486C23.0592 8.50704 23.0238 8.47155 22.9883 8.41841C22.6853 8.41841 22.3554 8.33825 21.999 8.17818ZM91.8701 6.39009C91.6386 6.46119 91.3892 6.52328 91.1221 6.57661C90.8547 6.62999 90.5962 6.70152 90.3467 6.79048C90.2219 6.80827 90.1059 6.81684 89.999 6.81685C89.8921 6.81685 89.7847 6.82542 89.6777 6.84322C89.4996 6.91439 89.3398 7.03081 89.1973 7.19087C89.0725 7.33322 88.947 7.47528 88.8223 7.61763C88.751 7.70656 88.6892 7.80487 88.6357 7.91158C88.5823 8.01821 88.5194 8.11566 88.4482 8.20454C88.4304 8.22232 88.4219 8.27588 88.4219 8.3647C88.4753 8.50705 88.5552 8.59669 88.6621 8.63228C88.769 8.65007 88.8765 8.67678 88.9834 8.71236C89.0901 8.74785 89.2057 8.78331 89.3301 8.8188C89.3834 8.80106 89.4283 8.79249 89.4639 8.79243C89.5173 8.79243 89.5715 8.78288 89.625 8.76509C89.8387 8.6763 90.0167 8.66765 90.1592 8.73872C90.3018 8.75652 90.4272 8.75652 90.5342 8.73872C90.6588 8.72095 90.7836 8.70278 90.9082 8.68501C91.015 8.73833 91.1217 8.77463 91.2285 8.79243C91.3532 8.81022 91.4693 8.83694 91.5762 8.87251C91.8079 8.94369 92.0312 8.97896 92.2451 8.97896C92.4589 8.97894 92.6729 8.95224 92.8867 8.89888C92.9758 8.80996 93.0205 8.72979 93.0205 8.65865V7.99165C93.0205 7.9027 93.011 7.8493 92.9932 7.8315C92.9754 7.77817 92.9487 7.72467 92.9131 7.67134C92.8953 7.61796 92.8772 7.58171 92.8594 7.56392V7.11079L92.7793 7.03072C92.7081 7.03066 92.6193 7.01245 92.5127 6.97701C92.477 6.81686 92.4324 6.69195 92.3789 6.60298C92.3255 6.53196 92.2539 6.48801 92.165 6.47017C92.0759 6.45237 91.9771 6.42568 91.8701 6.39009ZM68.2305 0.411575C68.3374 0.411575 68.4448 0.428723 68.5518 0.46431C68.6051 0.482021 68.6672 0.491631 68.7383 0.491653H68.9521C69.2017 0.456066 69.3984 0.553303 69.541 0.784622C69.5766 0.87349 69.6386 0.926924 69.7275 0.944778C69.8167 0.962572 69.8975 0.989268 69.9688 1.02486C70.1469 1.18499 70.2629 1.39004 70.3164 1.63911C70.352 1.74577 70.3872 1.85277 70.4229 1.95943C70.4763 2.06614 70.5125 2.17302 70.5303 2.27974C70.5659 2.38641 70.5925 2.502 70.6104 2.62642C70.646 2.73317 70.6726 2.83998 70.6904 2.94673C70.7439 3.07128 70.762 3.20478 70.7441 3.34712C70.7263 3.47168 70.6997 3.59659 70.6641 3.72115C70.6462 3.82781 70.6101 3.93479 70.5566 4.04146C70.5033 4.13032 70.4585 4.21919 70.4229 4.30806C70.3516 4.41477 70.2717 4.51307 70.1826 4.60201C70.1114 4.69091 70.04 4.77971 69.9688 4.86861C69.9153 4.88638 69.8706 4.92179 69.835 4.97505C69.7993 5.01064 69.7546 5.04689 69.7012 5.08247C69.5764 5.17137 69.3804 5.26018 69.1133 5.34908C68.8459 5.42025 68.6311 5.45552 68.4707 5.45552C68.3818 5.45546 68.3102 5.43733 68.2568 5.40181H67.9365C67.8297 5.38403 67.7316 5.37546 67.6426 5.37544C67.5891 5.33985 67.5264 5.30458 67.4551 5.269C67.4016 5.23341 67.3569 5.19716 67.3213 5.16158C67.2323 5.12608 67.1342 5.10884 67.0273 5.10884H66.7598C66.6885 5.05548 66.5991 5.01063 66.4922 4.97505C66.4033 4.92187 66.3144 4.87774 66.2256 4.84224L66.0645 4.36177C66.0823 4.21945 66.1003 4.06778 66.1182 3.90767C66.136 3.72973 66.1179 3.55143 66.0645 3.37349C66.0115 3.33803 66.0115 3.29376 66.0645 3.24068C66.1179 3.11612 66.1179 2.99121 66.0645 2.86665C66.011 2.74215 66.011 2.61714 66.0645 2.49263C66.0822 2.45704 66.0918 2.40356 66.0918 2.33247C66.0384 2.22583 66.0384 2.12839 66.0918 2.03951C66.1453 1.93274 66.1899 1.8431 66.2256 1.77193C66.2078 1.71864 66.1982 1.66506 66.1982 1.61177V1.45161C66.216 1.43391 66.2255 1.41658 66.2256 1.39888C66.2434 1.36329 66.27 1.3366 66.3057 1.3188C66.4482 1.28321 66.5642 1.22024 66.6533 1.1313C66.7602 1.02472 66.8763 0.944387 67.001 0.891068C67.1256 0.784518 67.259 0.695542 67.4014 0.624466C67.5618 0.553293 67.7139 0.482749 67.8564 0.411575H68.2305Z" fill="white"/>
</g>
<defs>
<clipPath id="clip0_663_860">
<rect width="143" height="18" fill="white" transform="translate(0.169922)"/>
</clipPath>
</defs>
</svg>
