<svg width="100" height="36" viewBox="0 0 100 36" fill="none" xmlns="http://www.w3.org/2000/svg">
<path d="M0 5C0 2.23858 2.23858 0 5 0H95C97.7614 0 100 2.23858 100 5V31C100 33.7614 97.7614 36 95 36H5C2.23858 36 0 33.7614 0 31V5Z" fill="#2F88FF"/>
<path d="M95 34V36H5V34H95ZM98 31V5C98 3.34315 96.6569 2 95 2H5C3.34315 2 2 3.34315 2 5V31C2 32.6569 3.34315 34 5 34V36C2.32472 36 0.140529 33.8989 0.00683594 31.2568L0 31V5C1.28855e-07 2.23858 2.23858 4.0266e-08 5 0H95L95.2568 0.00683594C97.8989 0.140529 100 2.32472 100 5V31L99.9932 31.2568C99.8638 33.8138 97.8138 35.8638 95.2568 35.9932L95 36V34C96.6569 34 98 32.6569 98 31Z" fill="white"/>
<path d="M82.6036 10.08L81.9236 9.16L82.2636 8.58C83.0236 8.94 84.3636 9.16 85.7436 9.16L85.8436 9.76L85.6036 10.64V15.94H86.1436L86.8436 15.62H87.4836C87.9236 16 88.3636 16.84 88.5636 17.76L88.2636 17.98L87.0836 17.72H85.6036V25.08L85.8436 25.48C85.4436 26.1 83.9636 26.92 82.8436 27.16L82.3236 26.48L82.6036 25.88V10.08ZM69.4636 22.04L69.5836 21.52L70.1836 21.18C72.3036 18.18 73.9436 14.96 75.0036 11.74L74.5436 10.82L74.8836 10.22C75.9636 10.72 77.3036 11.06 78.3636 11.08L78.4636 11.78L78.1036 12.36C77.7436 13.38 77.3236 14.44 76.8236 15.52L81.6236 19.9C81.4636 20.98 80.5636 22.34 79.6636 22.82L79.0036 22.46L79.0836 21.78L75.7836 17.62C74.8636 19.4 73.7836 21.18 72.6036 22.92C71.4436 23.02 70.1836 22.68 69.4636 22.04Z" fill="white"/>
<path d="M63.2091 10.08L62.5291 9.16L62.8691 8.58C63.6291 8.94 64.9691 9.16 66.3491 9.16L66.4491 9.76L66.2091 10.64V14.56H66.7491L67.4491 14.24H68.0891C68.5291 14.62 68.9691 15.46 69.1691 16.38L68.8691 16.6L67.6891 16.34H66.2091V17.48L66.4491 17.88C66.0491 18.5 64.5691 19.32 63.4491 19.56L62.9291 18.88L63.2091 18.28V10.08ZM50.1691 17.9L50.2891 17.4L50.8691 17.06C52.2891 15.58 53.8691 13.62 55.0291 10.82L54.5691 9.94L54.9091 9.34C55.8891 9.84 57.2291 10.16 58.3291 10.18L58.4291 10.76L58.0291 11.42C57.7891 11.96 57.5491 12.48 57.2891 12.96L61.9291 15.6C61.7691 16.66 60.8891 17.96 60.0291 18.44L59.3891 18.08L59.4691 17.42L56.2491 14.78C55.2891 16.3 54.2491 17.6 53.2091 18.76C52.0491 18.84 50.8491 18.5 50.1691 17.9ZM52.9091 23.38C53.1091 21.04 55.3291 19.64 59.6491 19.4C63.9691 19.64 66.1891 21.04 66.3891 23.38C66.1891 25.72 63.9691 27.12 59.6491 27.36C55.3291 27.12 53.1091 25.72 52.9091 23.38ZM56.1291 23.32C56.1291 24.58 57.4691 25.36 59.6491 25.36C61.8291 25.36 63.1691 24.58 63.1691 23.32C63.1691 22.06 61.8291 21.28 59.6491 21.28C57.4691 21.28 56.1291 22.06 56.1291 23.32Z" fill="white"/>
<path d="M45.5345 9.92L44.9145 9.1L45.2345 8.58C45.9545 8.9 47.1545 9.1 48.3545 9.1L48.4545 9.64L48.2345 10.42V18.6L48.4545 18.96C48.0745 19.5 46.7545 20.24 45.7545 20.46L45.2745 19.86L45.5345 19.32V15.28H44.2745V18.16L44.4945 18.52C44.1145 19.06 42.7945 19.8 41.7945 20.02L41.3145 19.42L41.5745 18.88V10.36L40.9545 9.54L41.2745 9.02C41.9945 9.34 43.1945 9.54 44.3945 9.54L44.4945 10.08L44.2745 10.86V13.42H45.5345V9.92ZM30.9345 18.46L31.0545 17.98L31.6145 17.66C32.9545 15.96 34.6545 13.26 35.3545 10.88L34.9345 10.06L35.2545 9.48C36.1745 9.96 37.4545 10.26 38.4945 10.28L38.5945 10.84L38.2145 11.46C37.9745 12.16 37.6745 12.9 37.3145 13.64L40.8745 16.46C40.7145 17.48 39.8745 18.7 39.0545 19.16L38.4545 18.82L38.5345 18.2L36.2545 15.64C35.4945 16.98 34.6345 18.24 33.8345 19.28C32.7345 19.36 31.5945 19.04 30.9345 18.46ZM33.4745 23.88C33.6745 21.84 35.8945 20.74 40.8145 20.5C45.7345 20.74 47.9545 21.84 48.1545 23.88C47.9545 25.92 45.7345 27.02 40.8145 27.26C35.8945 27.02 33.6745 25.92 33.4745 23.88ZM36.6945 23.82C36.6945 24.68 38.0945 25.26 40.8145 25.26C43.5345 25.26 44.9345 24.68 44.9345 23.82C44.9345 22.96 43.5345 22.38 40.8145 22.38C38.0945 22.38 36.6945 22.96 36.6945 23.82Z" fill="white"/>
<path d="M24.42 10.08L23.74 9.16L24.08 8.58C24.84 8.94 26.2 9.16 27.56 9.16L27.66 9.76L27.42 10.64V14.56H27.96L28.66 14.24H29.3C29.76 14.64 30.18 15.48 30.38 16.38L30.08 16.6L28.9 16.34H27.42V18.56L27.66 18.96C27.24 19.58 25.78 20.4 24.66 20.64L24.14 19.96L24.42 19.36V10.08ZM11.48 18.58L11.7 18.16L12.3 18C15.14 16.54 18.06 13.76 19.26 12H14.56L14.1 12.22H13.44C12.8 11.62 12.42 11 12.18 10.14L12.44 9.9L13.74 10.12H20.86L21.56 9.82H22.18C22.8 10.12 23.24 10.78 23.34 11.52L22.88 12C21 14.88 17.68 18.24 13.94 20.04C12.94 19.86 11.94 19.34 11.48 18.58ZM12.84 25.42L13.2 25.02L13.82 25.08L21.44 20.18L21.86 19.52L22.46 19.46C23.1 20.68 23.4 21.06 24.16 21.58L23.98 21.98L23.08 22.28L23 22.34L27.14 23.58L27.6 23.5C28.12 24.34 28.4 25.84 28.22 26.88L27.44 27.16L26.96 26.68L20.96 23.66L16.06 26.82L15.68 27.16C14.52 26.88 13.06 26.02 12.84 25.42Z" fill="white"/>
</svg>
