<svg width="16" height="16" viewBox="0 0 16 16" fill="none" xmlns="http://www.w3.org/2000/svg">
<path d="M12.138 0.551697H3.86217C2.03392 0.551697 0.551826 2.03379 0.551826 3.86204V12.1379C0.551826 13.9662 2.03392 15.4482 3.86217 15.4482H12.138C13.9663 15.4482 15.4484 13.9662 15.4484 12.1379V3.86204C15.4484 2.03379 13.9663 0.551697 12.138 0.551697Z" fill="#2F88FF"/>
<path d="M14.8966 3.86207C14.8966 2.33852 13.6615 1.10345 12.1379 1.10345H3.86207C2.33852 1.10345 1.10345 2.33852 1.10345 3.86207V12.1379C1.10345 13.6615 2.33852 14.8966 3.86207 14.8966H12.1379C13.6615 14.8966 14.8966 13.6615 14.8966 12.1379V3.86207ZM16 12.1379C16 14.2709 14.2709 16 12.1379 16H3.86207C1.72911 16 0 14.2709 0 12.1379V3.86207C0 1.72911 1.72911 0 3.86207 0H12.1379C14.2709 0 16 1.72911 16 3.86207V12.1379Z" fill="white"/>
<path d="M7.99993 11.3103C9.82819 11.3103 11.3103 9.82826 11.3103 8C11.3103 6.17173 9.82819 4.68965 7.99993 4.68965C6.17167 4.68965 4.68958 6.17173 4.68958 8C4.68958 9.82826 6.17167 11.3103 7.99993 11.3103Z" fill="#2F88FF"/>
<path d="M10.7587 8.00002C10.7587 6.47647 9.52364 5.2414 8.00009 5.2414C6.47654 5.2414 5.24147 6.47647 5.24147 8.00002C5.24147 9.52358 6.47654 10.7586 8.00009 10.7586C9.52364 10.7586 10.7587 9.52358 10.7587 8.00002ZM11.8622 8.00002C11.8622 10.133 10.1331 11.8621 8.00009 11.8621C5.86712 11.8621 4.13802 10.133 4.13802 8.00002C4.13802 5.86705 5.86712 4.13795 8.00009 4.13795C10.1331 4.13795 11.8622 5.86705 11.8622 8.00002Z" fill="white"/>
<path d="M12.5518 4.27587C13.0089 4.27587 13.3794 3.90536 13.3794 3.44828C13.3794 2.99121 13.0089 2.6207 12.5518 2.6207C12.0947 2.6207 11.7242 2.99121 11.7242 3.44828C11.7242 3.90536 12.0947 4.27587 12.5518 4.27587Z" fill="white"/>
</svg>
