<svg width="16" height="16" viewBox="0 0 16 16" fill="none" xmlns="http://www.w3.org/2000/svg">
<path d="M11.375 0.551697H15.5L4.625 15.4482H0.5L11.375 0.551697Z" fill="#2F88FF"/>
<path d="M15.5 0C15.6925 0 15.8681 0.121966 15.9512 0.313578C16.0342 0.505068 16.0102 0.73225 15.8897 0.897629L5.01465 15.7942C4.91974 15.9242 4.7763 16 4.625 16H0.500003C0.307495 16 0.13193 15.878 0.0488308 15.6864C-0.0341823 15.4949 -0.0102227 15.2677 0.110354 15.1024L10.9854 0.205819C11.0803 0.0758049 11.2237 0 11.375 0H15.5ZM1.54492 14.8966H4.38575L14.4551 1.10345H11.6143L1.54492 14.8966Z" fill="white"/>
<path d="M4.625 0.551697H0.5L11.375 15.4482H15.5L4.625 0.551697Z" fill="#2F88FF"/>
<path d="M4.625 0C4.7763 0 4.91974 0.0758049 5.01465 0.205819L15.8897 15.1024C16.0102 15.2677 16.0342 15.4949 15.9512 15.6864C15.8681 15.878 15.6925 16 15.5 16H11.375C11.2237 16 11.0803 15.9242 10.9854 15.7942L0.110354 0.897629C-0.0102227 0.73225 -0.0341823 0.505068 0.0488308 0.313578C0.13193 0.121966 0.307495 0 0.500003 0H4.625ZM11.6143 14.8966H14.4551L4.38575 1.10345H1.54492L11.6143 14.8966Z" fill="white"/>
</svg>
